<?xml version="1.0" encoding="UTF-8"?>
<svg id="Layer_1" data-name="Layer 1" xmlns="http://www.w3.org/2000/svg" viewBox="0 0 383.34 215.62">
  <defs>
    <style>
      .cls-1 {
        stroke-width: 0px;
      }
    </style>
  </defs>
  <path class="cls-1" d="M0,116.03c.52-1.64,1-3.29,1.57-4.91,3.63-10.3,10.77-16.87,21.28-19.7,6.01-1.62,12.05-3.13,18.12-4.51,6.25-1.42,10.63-4.97,13.76-10.54,8.92-15.86,18-31.62,27.04-47.41C92.84,9.63,109.52-.02,131.82,0c31.93.03,63.86.01,95.8,0,22.15,0,38.75,9.57,49.78,28.77,8.88,15.45,17.78,30.88,26.48,46.43,3.57,6.38,8.63,9.99,15.89,10.99,6.91.94,13.78,2.18,20.62,3.57,24.53,4.98,42.34,26.23,42.78,51.24.15,8.71.51,17.54-.68,26.12-1.96,14.08-14.25,24.14-28.44,24.47-6.73.15-13.47-.07-20.2.14-1.27.04-3.02,1.04-3.66,2.12-17.1,28.95-56.57,29.05-73.31.06-1.05-1.82-2.13-2.32-4.07-2.32-40.79.05-81.58.05-122.37,0-1.96,0-3.02.54-4.06,2.34-16.78,28.99-56.22,28.86-73.31-.1-.64-1.08-2.4-2.06-3.67-2.1-6.1-.22-12.22-.08-18.33-.1-15.48-.07-26.83-9.09-30.44-24.13-.11-.46-.41-.88-.61-1.32,0-16.72,0-33.43,0-50.15ZM351.67,107.8c.1-.37.2-.75.29-1.12-3.42-1.43-6.73-3.3-10.29-4.19-6.15-1.54-12.4-2.99-18.69-3.56-14.68-1.32-24.92-8.2-31.75-21.47-7.52-14.61-16.15-28.66-24.32-42.93-8.62-15.07-21.62-22.57-39-22.55-31.93.03-63.87.1-95.8-.03-18-.07-31.28,7.57-40.12,23.25-8.87,15.74-17.99,31.34-26.85,47.09-4.81,8.55-11.78,13.99-21.3,16.26-6.18,1.48-12.36,2.94-18.46,4.71-2.56.75-4.89,2.29-7.71,3.65.9.65.99.78,1.08.78,3.49.04,6.98.02,10.47.12,5,.14,7.49,3.35,6.31,8.22-1.79,7.38-3.65,14.75-5.55,22.11-1.08,4.2-2.83,5.53-7.16,5.58-3.56.04-7.12,0-10.8,0,0,6.78-.2,13.01.05,19.23.31,7.67,5.8,14.87,13.47,15.87,7.4.97,15.03.21,22.56.21-2.75-28.94,19.22-46.86,39.64-47.52,11.38-.37,21.44,2.92,29.9,10.52,11.08,9.96,15.24,22.67,13.86,37.39h120.21c-2.78-29.64,19.64-47.28,40.31-48.02,20.82-.74,45.86,16.22,43.28,48.1,6.84,0,13.71.46,20.49-.12,7.96-.68,14.51-7.23,15.21-15.2.58-6.65.12-13.39.12-20.5-2.52,0-4.86.08-7.2-.01-15.29-.62-28.05-13.33-28.54-28.37-.16-5.04,2.05-7.43,7.04-7.5,3.08-.05,6.16,0,9.25,0ZM59.89,173.58c-.03,16.4,13.26,29.9,29.56,30.03,16.73.12,30.31-13.34,30.31-30.05,0-16.32-13.41-29.76-29.76-29.82-16.57-.06-30.07,13.33-30.11,29.85ZM293.34,143.73c-16.53.05-29.91,13.55-29.85,30.11.07,16.35,13.5,29.76,29.82,29.76,16.7,0,30.16-13.58,30.05-30.32-.11-16.29-13.63-29.6-30.02-29.56ZM370.19,131.51c-1.65-3.64-3.05-6.92-4.65-10.09-.37-.73-1.43-1.54-2.19-1.56-4.78-.14-9.57-.07-14.45-.07,2.1,8.23,9.81,12.56,21.29,11.72ZM22.16,119.99h-9.94v11.62h7.08c.96-3.88,1.89-7.68,2.86-11.62Z"/>
  <path class="cls-1" d="M122.82,89.83c-14.33,0-28.66-.03-43,.02-2.88,0-5.49-.33-7.11-3.09-1.65-2.81-.47-5.23.99-7.67,9.24-15.36,18.4-30.78,27.7-46.11,6.05-9.96,15.03-14.96,26.69-15.01,12.59-.05,25.18-.02,37.76,0,5.82,0,7.8,2,7.8,7.9.01,18.69.01,37.39,0,56.08,0,5.86-2,7.86-7.84,7.86-14.33.02-28.66,0-43,0ZM88.54,77.59h72.85V29.99c-11.88,0-23.47-.15-35.05.06-5.67.1-10.54,2.69-13.54,7.5-8.15,13.09-16.01,26.36-24.27,40.04Z"/>
  <path class="cls-1" d="M197.76,30.14v47.48h72.95c-2.92-4.87-5.86-9.31-8.26-14.03-.9-1.77-1.21-4.46-.54-6.27,1.58-4.26,7.43-4.75,9.97-.76,5.16,8.08,10.07,16.33,14.78,24.68,2.14,3.79-.41,7.97-4.73,8.53-.98.13-1.99.07-2.99.07-28.31,0-56.61,0-84.92,0-6.6,0-8.39-1.81-8.39-8.45,0-18.46,0-36.91,0-55.37,0-6.12,1.91-8.03,8.04-8.04,12.47-.01,24.94-.03,37.41,0,13.83.04,26.22,8.78,30.69,21.71,1.05,3.04.32,5.77-2.63,7.4-2.93,1.63-5.64.92-7.61-1.7-1.49-1.98-2.63-4.23-3.95-6.34-3.72-5.97-9.09-9.08-16.15-9.1-10.72-.02-21.45,0-32.17,0-.37,0-.73.08-1.51.17Z"/>
  <path class="cls-1" d="M84.07,95.84c2,0,4-.12,5.98.03,3.34.25,5.65,2.69,5.72,5.8.08,3.25-2.32,5.92-5.83,6.06-4.11.17-8.23.17-12.34,0-3.34-.15-5.65-2.67-5.72-5.79-.07-3.27,2.31-5.83,5.83-6.07,2.11-.14,4.24-.03,6.36-.02Z"/>
  <path class="cls-1" d="M197.32,107.78c-1.87,0-3.75.09-5.61-.02-3.59-.21-5.99-2.61-6.04-5.88-.05-3.27,2.34-5.87,5.88-6.01,3.98-.16,7.98-.15,11.97-.01,3.57.12,6,2.61,6.04,5.86.05,3.25-2.35,5.8-5.88,6.03-2.11.14-4.24.03-6.36.03Z"/>
  <path class="cls-1" d="M89.7,191.6c-9.92-.06-17.97-8.31-17.82-18.25.15-9.75,8.24-17.64,18.07-17.63,9.73.01,17.83,8.13,17.81,17.87-.02,9.98-8.13,18.08-18.07,18.01ZM95.78,173.47c-.1-3.21-2.85-5.83-6.06-5.77-3.21.05-5.87,2.76-5.86,5.97,0,3.37,2.9,6.13,6.24,5.96,3.21-.17,5.79-2.96,5.68-6.16Z"/>
  <path class="cls-1" d="M293.4,155.72c9.75-.06,17.91,7.99,17.97,17.72.06,9.99-7.99,18.16-17.91,18.17-9.78.01-17.88-7.97-17.98-17.72-.1-9.94,7.95-18.1,17.92-18.16ZM299.39,173.79c.08-3.2-2.53-5.96-5.74-6.09-3.19-.13-6.01,2.45-6.18,5.66-.18,3.35,2.57,6.26,5.92,6.28,3.21.01,5.92-2.63,6-5.84Z"/>
</svg>