<?xml version="1.0" encoding="UTF-8"?>
<svg id="Layer_1" data-name="Layer 1" xmlns="http://www.w3.org/2000/svg" viewBox="0 0 383.32 247.56">
  <defs>
    <style>
      .cls-1 {
        stroke-width: 0px;
      }
    </style>
  </defs>
  <path class="cls-1" d="M0,73.61c2.87-8.06,8.64-11.49,17.07-10.83,2.23.17,4.49.13,6.73,0,5.75-.31,10.95.77,15.11,6.28,1.83-7.53,3.49-14.36,5.14-21.2.5-2.06,1.04-4.11,1.47-6.18,2.42-11.55,9.2-19.08,20.57-22.39.46-.13.9-.36,1.03-.42.33-3.07.18-6.02,1.03-8.66,1.93-6,6.27-9.42,12.62-10.09,1.36-.14,2.74-.12,4.11-.12C128.55,0,172.22-.01,215.88.03c2.35,0,4.8.08,7.02.74,7.21,2.15,10.86,8.47,10.11,17.47,1.19.06,2.37.13,3.55.18,8.25.38,14.78,3.86,19.64,10.61,11.57,16.1,23.26,32.12,34.76,48.26,1.59,2.23,3.42,3.31,6,3.81,5.75,1.11,11.46,2.39,17.17,3.67,4.21.95,6.23,3.62,5.44,7.02-.78,3.34-3.76,4.77-8.05,3.87-6.7-1.42-13.38-2.95-20.12-4.21-3.43-.64-5.76-2.33-7.79-5.16-11.8-16.55-23.85-32.92-35.58-49.52-3.6-5.1-8.08-7.21-14.23-7.2-52.77.09-105.54.05-158.31.06-11.07,0-16.65,4.35-19.18,14.97-4.94,20.72-9.84,41.44-14.74,62.17-.26,1.08-.45,2.21-.45,3.32-.03,16.09-.02,32.19-.01,48.28,0,.6.09,1.2.18,2.19,8.12,0,16.06.1,24-.11,1.16-.03,2.48-1.42,3.4-2.46,20.01-22.53,53.19-25.12,75.95-5.86,7.39,6.26,12.79,13.96,15.95,23.11.81,2.35,1.72,3.3,4.38,3.29,26.82-.12,53.64-.1,80.47-.02,2.34,0,3.41-.62,4.25-2.95,14.24-39.47,64.16-48.95,91.94-17.45,1.68,1.9,3.33,2.56,5.75,2.52,7.36-.12,14.72-.09,22.08-.02,2.08.02,3.12-.51,2.22-3.16-5.34,0-10.8.02-16.26,0-8.61-.05-13.48-4.82-13.6-13.38-.07-4.74-.08-9.48,0-14.22.16-8.2,4.87-12.89,13.13-13.04,5.35-.1,10.71-.02,16.04-.02.35-4.68-3.08-8.82-8.65-10.16-7.02-1.68-14.12-3.07-21.18-4.59-2.19-.47-4.41-.85-6.55-1.5-3.15-.95-4.65-3.63-3.93-6.64.71-2.98,3.28-4.78,6.53-4.11,9.76,2.01,19.57,3.87,29.2,6.37,9.76,2.54,16.72,11.77,16.79,21.91.14,19.71.22,39.42-.03,59.13-.19,15.08-11.38,27.32-26.65,29.63-2.55.39-3.8,1.33-4.64,3.85-6.88,20.63-26.21,35.61-47,36.65-23.71,1.18-44.03-10.76-53.41-31.66-1.24-2.77-2.58-3.81-5.7-3.8-27.07.14-54.14.12-81.21.02-2.82,0-4.26.63-5.53,3.46-12.76,28.71-47.06,40.55-74.61,25.92-1.2-.64-2.46-1.31-3.41-2.25-1.87-1.86-2.27-4.14-.9-6.5,1.42-2.44,3.59-3.43,6.34-2.63,1.18.34,2.25,1.03,3.38,1.56,16.68,7.87,32.71,6.67,46.96-5.04,14.09-11.59,19.07-27.06,14.03-44.67-5.02-17.56-17.28-28.22-35.37-30.74-17.12-2.39-31.35,3.94-41.12,18.27-9.75,14.3-10.19,29.58-2.17,44.96,2.81,5.4,2.71,8.57-.74,10.37-3.38,1.76-6.38.13-9.2-5.11-1.12-2.08-2.51-4.19-2.92-6.44-.72-3.88-3.22-4.41-6.42-4.68-14.51-1.26-22.98-10.59-23.02-25.21-.01-5.36,0-10.71,0-16.59-4.33,0-8.53-.25-12.69.05-8.41.61-14.19-2.7-17.17-10.67v-82.34ZM300.84,236.25c23.65-.09,42.76-19.29,42.75-42.92-.02-23.61-19.2-42.76-42.86-42.78-23.81-.02-43.27,19.49-42.99,43.09.28,23.72,19.49,42.71,43.11,42.62ZM11.23,114.78c0,12.1.06,24.19-.04,36.29-.02,2.97.92,4.43,4.08,4.3,3.49-.14,6.99-.12,10.47,0,2.81.1,4.14-.97,4.14-3.89-.04-24.57-.04-49.13,0-73.7,0-2.75-1.32-3.79-3.92-3.74-3.24.05-6.48-.01-9.73.01-4.67.03-4.99.37-4.99,5.2,0,11.85,0,23.69,0,35.54ZM150.04,18.4c14.84,0,29.69,0,44.53,0,7.73,0,15.47-.01,23.2,0,2.51,0,4.21-1.11,4.15-3.71-.06-2.4-1.74-3.43-4.06-3.44-.75,0-1.5-.01-2.25-.01-43.54,0-87.07,0-130.61,0-1,0-2.26-.33-2.93.15-1.33.95-3.03,2.26-3.24,3.63-.14.93,1.83,2.46,3.15,3.25.83.5,2.19.15,3.31.15,21.58,0,43.16,0,64.74,0ZM163.72,200.45h83.18c-.2-3.7-.39-7.11-.57-10.46h-82.61v10.46ZM54.55,197.09c1.48-8.63,2.9-16.9,4.35-25.28-4.89,0-10.24,0-15.6,0-.6,0-1.19.12-2.21.22,0,3.98-.03,7.81,0,11.63.08,8.71,4.98,13.43,13.46,13.42ZM351.4,172c1.44,7.92,2.85,15.66,4.26,23.42,10.58-1.22,17.88-11.59,15.94-23.42h-20.2ZM371.84,146.21v-18.18c-5.75,0-11.33-.09-16.89.11-.67.02-1.8,1.56-1.84,2.44-.2,4.23,0,8.48-.13,12.72-.06,2.32.88,3.01,3.11,2.95,5.11-.13,10.22-.04,15.75-.04Z"/>
  <path class="cls-1" d="M146.16,90.88c-7.98,0-15.96.05-23.94-.01-8-.06-13.4-5.32-13.53-13.33-.14-8.35-.14-16.71,0-25.06.14-7.99,5.57-13.28,13.57-13.31,16.08-.06,32.17-.06,48.25,0,7.98.03,13.41,5.37,13.53,13.34.12,8.35.12,16.71,0,25.06-.12,7.97-5.55,13.24-13.56,13.3-8.1.06-16.21.01-24.31.01ZM146.44,79.65c7.47,0,14.95-.13,22.42.06,3.17.08,4.1-1.08,4.03-4.12-.17-7.1-.14-14.2,0-21.3.05-2.81-.73-4-3.79-3.98-15.2.12-30.39.11-45.59,0-2.83-.02-3.69,1.06-3.65,3.74.11,7.22.17,14.45-.02,21.67-.08,3.23,1.21,4.03,4.19,3.96,7.47-.16,14.95-.05,22.42-.05Z"/>
  <path class="cls-1" d="M227.36,90.88c-7.72,0-15.45.05-23.17-.01-8.08-.06-13.35-5.24-13.44-13.3-.1-8.35-.09-16.7,0-25.04.09-8.06,5.37-13.3,13.4-13.36,8.97-.06,17.94.02,26.91-.03,4.74-.03,8.36,1.91,11.11,5.74,6.17,8.6,12.37,17.18,18.59,25.75,3.12,4.3,3.93,8.87,1.44,13.66-2.5,4.8-6.69,6.7-12.03,6.62-7.6-.11-15.2-.03-22.8-.03ZM252.37,79.65c-.22-1.15-.18-1.58-.38-1.85-6.24-8.7-12.46-17.42-18.83-26.03-.59-.8-2.07-1.32-3.15-1.34-8.22-.11-16.45.02-24.67-.11-2.65-.04-3.48.97-3.44,3.51.11,7.35.15,14.7-.02,22.05-.07,2.98.96,3.85,3.9,3.82,14.08-.13,28.16-.06,42.24-.06,1.33,0,2.65,0,4.34,0Z"/>
  <path class="cls-1" d="M109.81,221.86c-15.77.05-28.63-12.68-28.67-28.42-.05-15.7,12.82-28.54,28.56-28.53,15.74.01,28.6,12.93,28.48,28.61-.12,15.63-12.79,28.28-28.37,28.34ZM109.62,210.63c9.56.02,17.38-7.78,17.33-17.3-.04-9.4-7.68-17.1-17.06-17.19-9.6-.09-17.42,7.55-17.52,17.11-.1,9.5,7.7,17.36,17.25,17.38Z"/>
  <path class="cls-1" d="M104.09,65.25c0,4.11.05,8.23-.01,12.34-.12,7.82-5.39,13.17-13.14,13.27-6.98.09-13.96.1-20.94,0-9.99-.15-15.57-9.59-10.86-18.46,3.91-7.37,7.96-14.66,12.16-21.87,4.36-7.49,11.02-11.32,19.72-11.35,7.26-.02,12.84,5.38,13.04,12.61.12,4.48.02,8.97.02,13.46h.01ZM68.45,79.64c7.8,0,14.88.1,21.95-.13.85-.03,2.33-1.77,2.36-2.75.19-7.83.07-15.66.13-23.49.02-2.36-1.08-3.1-3.23-2.85-4.02.46-6.91,2.55-8.85,6.04-3.69,6.62-7.38,13.23-11.04,19.86-.45.82-.7,1.75-1.32,3.32Z"/>
  <path class="cls-1" d="M205.28,165.35c-11.83,0-23.66,0-35.49-.01-1.36,0-2.76,0-4.09-.27-3.01-.61-4.5-2.71-4.38-5.64.12-2.74,1.67-4.66,4.54-5.12,1.1-.18,2.23-.18,3.35-.18,24.04,0,48.07,0,72.11,0,1.12,0,2.26,0,3.35.21,2.83.57,4.35,2.52,4.4,5.27.05,2.75-1.42,4.76-4.22,5.41-1.32.3-2.72.32-4.08.32-11.83.02-23.66.01-35.49.01Z"/>
  <path class="cls-1" d="M124.82,108.03c-2.86,0-5.73.08-8.59-.02-3.5-.12-5.87-2.34-5.98-5.42-.11-3.2,2.35-5.68,6.02-5.75,5.97-.1,11.95-.12,17.92,0,3.45.07,5.78,2.5,5.76,5.6-.01,3.1-2.34,5.42-5.81,5.55-3.11.12-6.22.02-9.34.03Z"/>
  <path class="cls-1" d="M205.44,108.03c-2.98,0-5.97.09-8.95-.02-3.51-.14-5.72-2.38-5.73-5.57,0-3.18,2.2-5.51,5.71-5.58,6.09-.12,12.18-.13,18.27.01,3.44.08,5.63,2.55,5.54,5.74-.09,3.03-2.24,5.24-5.52,5.39-3.1.14-6.21.03-9.32.03Z"/>
  <path class="cls-1" d="M272.26,193.38c0-15.82,12.71-28.49,28.54-28.47,15.69.03,28.58,13.02,28.44,28.67-.14,15.58-12.88,28.24-28.46,28.27-15.82.04-28.52-12.65-28.52-28.48ZM283.49,193.24c-.07,9.65,7.56,17.38,17.16,17.39,9.57,0,17.4-7.78,17.37-17.28-.03-9.36-7.73-17.11-17.08-17.2-9.66-.09-17.38,7.48-17.45,17.1Z"/>
</svg>