<?xml version="1.0" encoding="UTF-8"?>
<svg id="Layer_1" data-name="Layer 1" xmlns="http://www.w3.org/2000/svg" viewBox="0 0 359.31 359.32">
  <defs>
    <style>
      .cls-1 {
        stroke-width: 0px;
      }
    </style>
  </defs>
  <path class="cls-1" d="M59.89,35.98c0-4.2-.05-8.04,0-11.87C60.09,10.57,70.62.03,83.89.06c13.27.03,23.7,10.56,23.89,24.17.05,3.73,0,7.47,0,11.48h47.91c0-3.67-.03-7.37,0-11.07.12-13.9,10.45-24.54,23.85-24.58,13.44-.04,23.89,10.55,24.04,24.39.04,3.71,0,7.43,0,11.33h47.93c0-4.12-.1-8.31.02-12.49.32-11.82,9.24-21.55,21.06-23.1,11.26-1.47,22.37,5.69,25.67,16.75.74,2.47.97,5.14,1.1,7.73.18,3.59.05,7.2.05,11.07,1.28.09,2.35.22,3.43.22,8.11.02,16.22,0,24.33.01,19.54.02,32.12,12.52,32.13,31.98.01,45.78,0,91.57,0,137.35,0,4.99.03,9.98,0,14.97-.03,4.61-2.43,7.41-6.15,7.29-3.59-.11-5.8-2.79-5.81-7.26-.02-31.81-.01-63.62-.01-95.43,0-1.49,0-2.98,0-4.77H11.98v3.88c0,59.88,0,119.76,0,179.64,0,12.41,7.36,19.78,19.76,19.78,54.27.01,108.53,0,162.8,0,6.17,0,8.98,1.84,9.03,5.91.06,4.09-2.84,6.07-8.88,6.07-54.14,0-108.28,0-162.43,0C12.51,335.39,0,322.9,0,303.17c0-78.34,0-156.69,0-235.03,0-19.72,12.51-32.15,32.32-32.16,9.07,0,18.14,0,27.57,0ZM12.02,107.57h335.26c0-14.48.24-28.7-.09-42.9-.22-9.22-8.13-16.48-17.47-16.67-7.36-.15-14.72-.04-22.08-.04-2.69,0-5.37,0-8.23,0,0,4.28.04,8.02,0,11.75-.18,13.6-10.62,24.15-23.89,24.17-13.27.02-23.8-10.52-23.99-24.06-.05-3.83,0-7.67,0-11.63h-47.91c0,3.7.02,7.17,0,10.64-.08,14.27-10.23,24.97-23.77,25.05-13.71.08-24.06-10.65-24.13-25.05-.02-3.56,0-7.12,0-10.68h-47.91c0,3.88.03,7.6,0,11.31-.15,13.85-10.58,24.46-24.01,24.43-13.4-.03-23.77-10.67-23.88-24.55-.03-3.7,0-7.4,0-11.28-10.9,0-21.37-.36-31.8.11-8.61.38-15.81,7.92-15.98,16.51-.29,14.2-.08,28.42-.08,42.9ZM95.81,42.3c0-5.86.04-11.72-.01-17.58-.07-7.31-5.13-12.65-11.92-12.68-6.83-.02-11.96,5.27-12,12.57-.06,11.6-.06,23.2,0,34.79.04,7.23,5.29,12.57,12.09,12.5,6.65-.07,11.73-5.34,11.82-12.39.08-5.74.02-11.47.02-17.21ZM167.68,41.98c0,5.74-.04,11.47,0,17.21.06,7.32,5.1,12.67,11.89,12.71,6.8.04,12-5.29,12.04-12.55.07-11.6.07-23.2,0-34.79-.04-7.25-5.27-12.58-12.08-12.51-6.81.06-11.79,5.37-11.85,12.73-.05,5.74,0,11.47,0,17.21ZM263.49,41.84c0,5.86-.05,11.72.01,17.58.08,7.22,5.32,12.56,12.12,12.47,6.65-.09,11.75-5.35,11.8-12.42.07-11.6.06-23.2,0-34.79-.04-7.3-5.15-12.64-11.94-12.65-6.83-.01-11.91,5.29-11.98,12.59-.06,5.74-.01,11.47-.01,17.21Z"/>
  <path class="cls-1" d="M359.29,281.7c-.24,43.2-35.23,77.84-78.42,77.63-43.12-.21-77.63-35.58-77.26-79.15.36-42.4,35.81-76.83,78.78-76.5,42.38.32,77.13,35.59,76.89,78.03ZM281.63,215.64c-36.71.08-66.03,29.45-66.04,66.14,0,36.17,29.78,65.66,66.23,65.58,35.87-.08,65.47-29.73,65.49-65.6.02-36.47-29.51-66.2-65.69-66.12Z"/>
  <path class="cls-1" d="M72.04,149.76c3.99,0,7.98-.1,11.97.02,6.56.2,11.59,5.12,11.76,11.67.16,6.23.18,12.47-.01,18.7-.19,6.36-5.17,11.33-11.55,11.46-8.23.17-16.46.17-24.69,0-6.36-.13-11.37-5.13-11.55-11.46-.18-6.23-.16-12.47-.01-18.7.16-6.57,5.15-11.47,11.74-11.66,4.11-.12,8.23-.02,12.35-.02ZM60.04,179.42h23.62v-17.47h-23.62v17.47Z"/>
  <path class="cls-1" d="M143.38,191.67c-3.74,0-7.48.05-11.22,0-7.21-.12-12.26-5.07-12.37-12.22-.09-5.86-.1-11.72,0-17.58.12-7,5.1-11.98,12.1-12.07,7.86-.1,15.71-.1,23.57,0,7,.08,12.05,5.06,12.18,12.01.12,5.98.13,11.97,0,17.96-.15,6.78-5.13,11.72-11.91,11.9-4.11.11-8.23.02-12.35.02ZM155.44,179.53v-17.5h-23.5v17.5h23.5Z"/>
  <path class="cls-1" d="M215.65,191.67c-3.87,0-7.73.05-11.6-.01-7.24-.12-12.28-5.04-12.4-12.19-.09-5.86-.1-11.72,0-17.58.12-7.01,5.08-12.01,12.07-12.1,7.86-.11,15.71-.1,23.57,0,7.16.08,12.12,5.13,12.22,12.35.08,5.74.08,11.47,0,17.21-.11,7.23-5.06,12.18-12.27,12.31-3.86.07-7.73.01-11.6.01ZM203.78,179.45h23.49v-17.53h-23.49v17.53Z"/>
  <path class="cls-1" d="M287.53,191.67c-3.99,0-7.98.08-11.97-.02-6.96-.17-11.93-5.17-12.05-12.16-.09-5.86-.1-11.72,0-17.58.12-7.02,5.06-12.03,12.05-12.13,7.98-.11,15.96-.12,23.94,0,6.74.11,11.72,5.17,11.86,11.94.12,5.98.12,11.97,0,17.96-.14,6.78-5.11,11.76-11.86,11.95-3.99.11-7.98.02-11.97.02ZM299.21,179.53v-17.55h-23.47v17.55h23.47Z"/>
  <path class="cls-1" d="M72.02,245.57c-3.99,0-7.98.07-11.97-.02-6.98-.15-11.99-5.13-12.11-12.09-.1-5.86-.09-11.72,0-17.58.11-7.04,5.02-12.09,11.98-12.19,7.98-.12,15.96-.12,23.94,0,6.76.1,11.78,5.12,11.92,11.88.13,5.98.12,11.97,0,17.96-.13,6.97-5.15,11.88-12.17,12.03-3.86.08-7.73.01-11.6.01ZM83.69,215.81h-23.59v17.54h23.59v-17.54Z"/>
  <path class="cls-1" d="M143.82,245.57c-3.99,0-7.98.08-11.97-.02-6.96-.16-11.94-5.17-12.06-12.15-.09-5.86-.1-11.72,0-17.58.11-7.02,5.06-12.04,12.04-12.14,7.98-.11,15.96-.12,23.94,0,6.74.11,11.73,5.16,11.87,11.94.12,5.98.12,11.97,0,17.96-.14,6.94-5.2,11.84-12.22,11.97-3.86.08-7.73.01-11.6.01ZM155.38,233.52v-17.64h-23.35v17.64h23.35Z"/>
  <path class="cls-1" d="M71.49,299.45c-3.87,0-7.73.09-11.6-.01-6.77-.18-11.81-5.14-11.95-11.87-.13-6.11-.14-12.22.01-18.33.16-6.57,5.15-11.54,11.74-11.65,8.1-.14,16.21-.14,24.32,0,6.56.11,11.59,5.11,11.76,11.65.16,6.23.18,12.47-.01,18.7-.19,6.36-5.17,11.25-11.55,11.48-4.23.15-8.48.03-12.72.03ZM60.02,287.19h23.61v-17.43h-23.61v17.43Z"/>
  <path class="cls-1" d="M143.71,257.55c3.99,0,7.98-.08,11.97.02,6.77.17,11.81,5.11,11.96,11.86.13,6.11.15,12.22,0,18.33-.17,6.55-5.17,11.55-11.74,11.67-8.1.15-16.21.15-24.32,0-6.56-.12-11.59-5.14-11.75-11.66-.15-6.11-.14-12.22,0-18.33.14-6.78,5.13-11.69,11.93-11.86,3.99-.1,7.98-.02,11.97-.02ZM155.51,269.74h-23.51v17.46h23.51v-17.46Z"/>
  <path class="cls-1" d="M203.73,215.63v17.67c.72.27,1.42.49,2.09.8,3,1.41,4.36,3.81,3.5,7-.86,3.16-3.24,4.59-6.52,4.44-5.76-.26-10.88-5.21-11.09-11.18-.23-6.48-.23-12.98,0-19.46.21-6.18,5.19-11.04,11.42-11.19,7.98-.18,15.97-.11,23.95-.03,3.85.04,6.38,2.47,6.44,5.85.07,3.51-2.55,6.03-6.61,6.07-7.59.08-15.19.02-23.17.02Z"/>
  <path class="cls-1" d="M269.65,303.22c4.05-4.2,7.7-8.09,11.47-11.88,11.17-11.22,22.32-22.46,33.64-33.53,1.54-1.51,4-2.86,6.06-2.9,4.13-.07,6.61,4.84,4.62,8.51-.64,1.17-1.66,2.17-2.62,3.14-15.76,15.79-31.54,31.57-47.33,47.34-4.76,4.75-7.25,4.78-11.91.12-7.67-7.66-15.36-15.31-22.99-23.02-3.03-3.06-3.25-6.3-.8-8.93,2.55-2.75,6.06-2.67,9.2.43,6.73,6.66,13.38,13.4,20.66,20.71Z"/>
</svg>