<?xml version="1.0" encoding="UTF-8"?>
<svg id="Layer_1" data-name="Layer 1" xmlns="http://www.w3.org/2000/svg" viewBox="0 0 383.29 383.24">
  <defs>
    <style>
      .cls-1, .cls-2 {
        stroke-width: 0px;
      }

      .cls-2 {
        fill: #fff;
      }
    </style>
  </defs>
  <path class="cls-1" d="M348.82,0c7.95,1.88,15.41,4.72,21.5,10.46,8.22,7.74,12.81,17.22,12.85,28.48.14,40.91.17,81.82,0,122.73-.07,17.38-12.01,32.57-28.7,37.38-1.07.31-2.15.61-3.43.97,0,13.15.04,26.23-.05,39.32-.01,1.81-.27,3.82-1.09,5.38-2.36,4.51-7.66,5-12.11,1.23-10.74-9.12-21.43-18.3-32.15-27.46-6.35-5.43-12.69-10.87-19.09-16.24-.89-.75-2.1-1.55-3.18-1.58-5.47-.16-10.94-.07-16.9-.07v4.55c0,29.44.01,58.87,0,88.31-.01,24.88-16.94,41.85-41.76,41.86-40.79.02-81.57.03-122.36-.05-2.67,0-4.65.72-6.68,2.47-16.44,14.17-32.99,28.2-49.47,42.32-2.8,2.4-5.65,4.19-9.46,2.49-3.92-1.76-4.61-5.1-4.58-8.98.08-12.84.03-25.68.03-38.5-3.49-1.35-6.96-2.35-10.13-3.97-11.46-5.86-18.55-15.17-21.32-27.77-.18-.83-.5-1.62-.76-2.43,0-43.91,0-87.83,0-131.74.19-.31.48-.6.55-.94,4.58-21.33,19.56-33.48,41.36-33.49,23.56-.01,47.13,0,70.69,0h4.18c0-1.98,0-3.46,0-4.94,0-29.8-.08-59.59.03-89.39.06-15.62,6.93-27.62,20.53-35.3C141.57,2.72,146.56,1.67,151.2,0,173.66,0,196.12,0,218.57,0c.39.28.77.58,1.17.85,3.32,2.2,4.7,5.32,3.79,8.56-.98,3.46-3.8,5.54-7.93,5.55-18.84.04-37.67.02-56.51.02-17.31,0-27.35,10.07-27.35,27.42,0,38.79,0,77.59,0,116.38,0,16.58,10.25,26.86,26.79,26.87,42.04.01,84.07.04,126.11-.06,3.87,0,6.89,1.08,9.81,3.62,12.43,10.79,25,21.42,37.53,32.11,1.12.96,2.29,1.86,3.84,3.13.11-1.46.25-2.5.25-3.54.02-8.98-.03-17.96.03-26.94.03-5.25,2.75-7.98,8.02-8.32,14.24-.91,24.13-11.18,24.14-25.37.06-39.92.05-79.83,0-119.75-.02-14.86-10.65-25.48-25.47-25.53-19.46-.06-38.92,0-58.38-.03-4.13,0-6.95-2.09-7.93-5.55-.92-3.24.47-6.36,3.79-8.56.4-.27.78-.56,1.17-.85,22.46,0,44.91,0,67.37,0ZM116.63,149.92c-.7-.09-1.17-.2-1.64-.2-25.32,0-50.63-.13-75.95.05-13.24.1-23.97,10.96-24.01,24.27-.12,40.66-.11,81.31,0,121.97.03,12.56,9.67,22.86,22.13,24.25,8.72.97,10.02,2.44,10.02,11.3,0,1.25,0,2.49,0,3.74,0,7.79,0,15.58,0,24.05,1.74-1.38,2.9-2.25,4-3.2,12.52-10.68,25.09-21.31,37.5-32.12,3.02-2.63,6.14-3.73,10.14-3.72,42.03.1,84.06.07,126.09.06,16.29,0,26.59-10.33,26.6-26.67.01-29.68,0-59.36,0-89.05v-4.57h-105.51c.34.97.74,2.13,1.17,3.28,8.74,23.18,17.5,46.35,26.23,69.54,1.99,5.28.39,9.48-4.09,11.09-4.22,1.51-7.92-.69-9.93-5.92-1.52-3.95-3.07-7.89-4.46-11.89-.64-1.85-1.44-2.77-3.66-2.75-11.97.13-23.95.13-35.92,0-2.18-.02-3.05.82-3.72,2.7-1.63,4.57-3.3,9.14-5.21,13.59-1.75,4.07-5.73,5.66-9.53,4.14-3.85-1.54-5.57-5.33-4.28-9.49.29-.95.65-1.88,1-2.81,6.65-17.45,13.31-34.89,19.97-52.34,4.12-10.8,8.23-21.61,12.45-32.68q-8.12-12.06-9.38-36.61ZM148.13,248.37c-4.87-12.9-9.64-25.53-14.78-39.13-5.2,13.68-9.99,26.27-14.87,39.13h29.65Z"/>
  <path class="cls-2" d="M151.2,0c-4.64,1.67-9.63,2.72-13.87,5.11-13.6,7.68-20.48,19.68-20.53,35.3-.11,29.8-.03,59.59-.03,89.39,0,1.48,0,2.96,0,4.94h-4.18c-23.56,0-47.13,0-70.69,0-21.79,0-36.78,12.16-41.36,33.49-.07.34-.36.63-.55.94C0,112.85,0,56.52,0,0,50.4,0,100.8,0,151.2,0Z"/>
  <path class="cls-1" d="M252.26,0c.59.42,1.19.82,1.78,1.25,2.89,2.12,4.18,4.91,3.05,8.41-1.11,3.43-3.64,5.32-7.26,5.24-3.45-.07-5.85-1.96-6.89-5.24-1.11-3.5.16-6.29,3.05-8.41.58-.43,1.19-.83,1.78-1.25,1.5,0,2.99,0,4.49,0Z"/>
  <path class="cls-1" d="M250.03,139.86c-9.66,8.94-20.45,15.47-32.84,19.13-3.93,1.16-7.96,2.06-12.01,2.67-5.76.87-9.25-1.33-9.96-5.81-.77-4.85,2.12-8.11,8.11-9.01,12.39-1.85,23.32-6.94,32.96-14.87,1.24-1.02,2.41-2.13,3.84-3.41-10.07-14.33-15.4-30.13-15.67-48.05-5.42,0-10.61,0-15.79,0-2.74,0-5.49.09-8.23-.05-4.95-.26-8.08-3.29-8.03-7.56.05-4.3,3.24-7.29,8.2-7.32,11.72-.08,23.45-.03,35.17-.03,2.1,0,4.2,0,6.76,0,0-6.52-.07-12.71.02-18.9.08-5.45,4-8.79,8.99-7.84,3.64.69,5.89,3.6,5.94,7.93.06,6.1.02,12.2.02,18.81,1.57,0,2.9,0,4.23,0,12.47,0,24.94-.03,37.41.02,4.79.02,7.79,2.37,8.42,6.3.73,4.6-2.69,8.43-8.06,8.58-6.48.18-12.97.06-19.45.07-1.35,0-2.7,0-4.41,0-.39,17.68-5.5,33.56-15.72,47.99,10.18,9.72,22.02,15.82,35.79,18.22.86.15,1.73.25,2.58.44,4.71,1.04,7.11,4.14,6.56,8.45-.53,4.19-3.96,6.95-8.63,6.19-5.38-.88-10.77-2.05-15.97-3.69-11.34-3.59-21.18-9.86-30.22-18.24ZM239.44,80.68c.34,12.99,3.54,24.56,10.63,35.55,6.88-11.25,10.4-22.77,10.38-35.55h-21Z"/>
</svg>