<?xml version="1.0" encoding="UTF-8"?>
<svg id="Layer_1" data-name="Layer 1" xmlns="http://www.w3.org/2000/svg" viewBox="0 0 377.88 255.03">
  <defs>
    <style>
      .cls-1 {
        stroke-width: 0px;
      }
    </style>
  </defs>
  <path class="cls-1" d="M377.88,207.86c-2.47,7.01-3.98,14.57-7.59,20.93-11.06,19.52-33.21,29.36-54.92,25.37-21.52-3.96-38.27-20.63-42.51-42.33-.26-1.31-.52-2.62-.76-3.8-6.13.44-12.08,1.22-18.05,1.24-37.63.11-75.27.06-112.9.06h-4.71c-2.81,16.15-10.71,28.96-24.64,37.69-9.44,5.91-19.82,8.44-30.93,7.9-19.29-.93-43.85-14.06-49.78-45.59-5.53,0-11.14.01-16.76,0-9.5-.03-14.17-4.81-14.29-14.32-.18-14.66-.04-29.27,4.9-43.36,11.4-32.54,33.54-53.94,66.49-64.13,1.37-.42,2.75-.84,4.52-1.38-4.01-5.26-6.46-10.72-6.81-17.06-.41-7.5,4.48-13.23,12.03-13.26,26.81-.08,53.62-.26,80.43.06,18.4.22,32.6,14.13,33.85,32.38.1,1.52-.36,3.16-.89,4.63-4.19,11.54-8.57,23.01-12.67,34.58-7.21,20.33,2.85,41.38,22.63,47.4,2.9.88,6.02,1.43,9.04,1.49,9.96.2,19.92.27,29.88.05,7.16-.16,10.82-3.74,12.62-11.09,3.75-15.3,3.3-30.74,1.36-46.17-2.38-18.83-7.16-37.11-13.26-55.06-1.41-4.15-3.2-5.33-7.67-4.57-7.26,1.23-14.5,2.65-21.74,4.01-4.49.85-7.48-.66-8.05-4.11-.55-3.36,1.54-5.7,5.87-6.54,6.15-1.19,12.28-2.47,18.46-3.48,2.15-.35,2.8-1.15,2.86-3.29.1-3.9.56-7.79.95-11.67.25-2.47-4.46-7.39-7.26-7.39-6.89,0-13.78-.08-20.66.1-14.18.36-16.82-12.58-13.6-22.1.66-1.95,3.66-4.24,5.73-4.39,8.81-.64,17.67-.79,26.5-.51,2.2.07,4.72,2.03,6.4,3.78,3.48,3.62,6.42,7.77,9.74,11.56,2.8,3.2,4.93,6.36.61,11.24,2.35-.16,3.55-.07,4.67-.34,13.23-3.26,26.45-6.57,39.68-9.86,8.6-2.14,13.71,1.8,13.74,10.6.03,7.38.04,14.76,0,22.14-.04,6.94-4.01,10.86-11.02,10.94-3.05.03-6.1,0-9.81,0,2.61,4.6,5.02,8.68,7.25,12.86.79,1.48,1.93,3.4,1.54,4.72-.55,1.85-2.05,3.98-3.73,4.81-2.39,1.17-4.84-.06-6.24-2.45-3.34-5.73-6.66-11.48-9.83-17.31-1.07-1.96-2.3-2.85-4.6-2.68-3.02.22-6.07.05-9.19.05,2.88,10.4,5.9,20.38,8.37,30.48,4.78,19.54,7.63,39.37,6.13,59.53-.52,7.06-1.91,14.13-3.66,21-2.36,9.29-10.72,15.83-20.27,15.96-12.53.17-25.27,1.2-37.57-.59-29.7-4.32-46.27-34.01-36.11-62.9,3.33-9.48,6.89-18.88,10.55-28.89-1.58-.08-2.72-.2-3.86-.2-26.32,0-52.64-.12-78.96.02-37.6.21-70.49,22.71-82.67,56.34-.16.44-.28.89-.5,1.56,4.56-3.77,8.71-7.64,13.3-10.89,11.82-8.39,25.25-11.78,39.61-11.8,4.29,0,6.91,2.26,6.86,5.58-.05,3.32-2.61,5.26-7.02,5.34-28.66.47-50.26,17.25-56.58,44.1-.78,3.32-.85,6.8-1.33,10.2-.38,2.69.89,3.59,3.37,3.32.24-.03.49,0,.74,0,44.15,0,88.3,0,132.45,0h3.31c.75-9.98.08-19.57-4.24-28.51-8.8-18.21-23.49-27.81-43.65-29.05-2.21-.14-4.43.01-6.64-.09-3.58-.17-5.74-2.25-5.74-5.39,0-3.11,2.1-5.52,5.75-5.39,6.36.22,12.89.22,19.02,1.7,28.39,6.83,46.22,30.05,46.58,59.92.03,2.08,0,4.17,0,6.33h105.2c.04-30.88,14.34-54.87,34.79-76.13-3.44-6.04-7.02-11.92-10.13-18.04-.94-1.86-1.4-4.68-.68-6.51,1.64-4.19,7.03-3.87,9.63.47,3.22,5.37,6.35,10.81,9.25,16.36,1.26,2.4,2.75,3.1,5.43,3.16,20.69.42,36.95,8.97,47.81,26.88,4.28,7.06,2.81,12.45-4.43,16.91.34.45.6.95.99,1.3,9.63,8.76,15.55,19.5,17.39,32.44.07.46.38.89.58,1.33v11.81ZM296.98,182.5c-.5-.09-1-.19-1.5-.28-1.46,2.24-2.94,4.47-4.38,6.72-2.5,3.9-5.03,7.78-7.41,11.75-.57.96-.86,2.26-.82,3.39.66,20.64,18.31,38.72,38.84,39.88,18.69,1.05,35.39-9.33,42.17-26.21,6.81-16.97,2.13-36.09-12.24-48.03-3.49-2.9-7.83-5.89-12.09-6.46-4.52-.6-9.41,1.63-14.14,2.62-.12.48-.24.96-.36,1.43,1.47.92,2.86,2.43,4.44,2.67,9.15,1.38,16.25,5.93,21.73,13.24,8.88,11.86,7.92,28.35-2.36,40.48-8.86,10.46-25.8,13.74-38.08,7.38-16.91-8.77-22.91-27.49-14.36-44.55.58-1.15.4-2.68.57-4.03ZM183.34,83.59c-.09-.67-.08-1.17-.23-1.6-.34-.92-.68-1.85-1.16-2.7-4.85-8.62-12.25-12.65-22.12-12.62-25.33.07-50.67.02-76,.03-.74,0-1.61-.21-2.18.12-.7.4-1.56,1.21-1.62,1.91-.56,6.87,7.1,15.11,13.94,15.11,28.65-.02,57.31-.06,85.96-.1,1.08,0,2.16-.09,3.4-.14ZM354.32,150.65c-7.4-14.65-25.97-24.5-41.61-22.48-.89.11-1.9.57-2.53,1.2-13.76,13.63-24.29,29.27-29.52,48.12-.88,3.17-1.27,6.48-1.89,9.72,6.8-14.29,19.09-21.79,32.53-27.75,13.5-5.99,27.9-8.26,43.02-8.82ZM42.81,209.46c2.5,19.61,21.61,35.11,41.94,34.56,22.47-.61,38.34-18.2,40.02-34.56h-9.21c-4.8,14.86-14.58,24.19-30.38,24.73-17.16.59-27.86-8.9-33.09-24.73h-9.28ZM333.75,182.77c1.75,3.4,3.62,5.98,4.43,8.87,1.04,3.67,2.15,7.72,1.59,11.36-1.07,6.95-5.84,11.28-12.76,12.58-6.75,1.27-12.42-1.04-16.32-6.76-2.33-3.41-4.16-7.15-6.29-10.86-3.32,8.41,2.74,20.02,12.29,23.91,10.87,4.43,23.39-.71,27.97-11.49,4.46-10.49-.25-23.09-10.91-27.61ZM64.16,209.51c2.19,8.33,11.07,14.23,20.7,13.9,8.7-.3,17.22-6.68,18.54-13.9h-39.24ZM304.87,174.94c4.93,9.37,9.57,18.4,14.44,27.31,1.57,2.87,4.7,3.49,7.31,2.03,2.54-1.42,3.59-4.37,2.09-7.34-4.52-8.96-9.23-17.81-14.04-27.06-3.31,1.71-6.41,3.31-9.8,5.06ZM269.03,49.1v-16.91c-7.53,1.87-14.76,3.6-21.95,5.53-.92.25-2.15,1.46-2.23,2.32-.28,2.97-.11,5.97-.11,9.07h24.28ZM289.17,49.06v-21.91c-2.56.62-4.86,1.03-7.03,1.79-.8.28-1.86,1.37-1.88,2.12-.15,5.95-.09,11.9-.09,18h8.99ZM203.09,10.81c.19,2.5-.67,5.14,2.49,5.24,7.17.22,14.35.07,21.52.07l.45-1.07c-1.68-1.41-3.27-3.91-5.05-4.05-6.33-.5-12.71-.19-19.41-.19Z"/>
</svg>