<?xml version="1.0" encoding="UTF-8"?>
<svg id="Layer_1" data-name="Layer 1" xmlns="http://www.w3.org/2000/svg" viewBox="0 0 305.98 408.91">
  <defs>
    <style>
      .cls-1 {
        stroke-width: 0px;
      }
    </style>
  </defs>
  <path class="cls-1" d="M17.19,408.91c-2.25-1.06-4.61-1.92-6.72-3.21-6.03-3.71-9.63-9.11-10.22-16.23-.3-3.57-.29-7.18-.19-10.77.12-4.12,2.51-6.56,6.02-6.51,3.48.05,5.71,2.5,5.88,6.68.12,2.79-.06,5.6.11,8.38.38,5.96,4.08,9.65,10.02,9.65,45.79.04,91.58.3,137.37-.13,24.69-.23,46.71-20.65,50.09-45.11.16-1.15.02-2.35.02-3.95-1.36.74-2.51,1.34-3.63,1.97-65.7,37.04-148.34-3.42-159.38-78.03-8.67-58.57,32-113.48,90.47-122.14,59.79-8.86,115.6,33.51,122.68,93.48.99,8.38.34,16.99.11,25.48-.12,4.4-2.82,6.7-6.51,6.46-3.68-.24-5.8-2.82-5.32-7.37,1.93-18.29-.72-35.79-8.63-52.44-17.17-36.16-55.39-58.72-96.96-54.15-43.72,4.81-77.44,38.97-83.85,79.94-8.35,53.38,28.87,103.2,82.32,109.84,23.94,2.97,45.96-2.29,66.01-15.75,2.1-1.41,3.34-2.9,3.67-5.65.98-8.15,7.51-14.24,16.12-16.09,1.82-.39,3.96-1.63,4.93-3.13,3.1-4.78,5.79-9.83,8.5-14.86,2.12-3.94,5.03-5.48,8.29-4.08,3.49,1.5,4.58,4.95,2.64,9.09-1.95,4.16-4.13,8.22-6.48,12.84,20.21-2.51,34.81-12.22,43.92-29.87,3.78-7.33,5.45-15.24,5.45-23.48.01-47.25,0-94.49,0-141.74,0-.79-.11-1.58-.21-2.98-4.34,0-8.67.02-13.01,0-4.97-.03-7.82-2.24-7.81-6.01,0-3.76,2.86-5.92,7.85-5.96,3.99-.03,7.98-.04,11.98-.08.24,0,.48-.19,1.01-.41.06-1.15.2-2.44.2-3.73.01-14.24.03-28.48,0-42.72-.02-8.97-3.3-12.19-12.33-12.21-5.7-.01-11.41,0-17.67,0,0,6.19.14,12.13-.03,18.06-.46,15.8-15.58,26.62-30.46,21.88-9.77-3.11-16.08-11.8-16.33-22.7-.13-5.57-.02-11.14-.02-16.97h-40.85c0,6.12.13,12.07-.03,18.02-.3,11.7-9.14,21.42-20.31,22.53-12.44,1.24-23.54-6.27-25.66-18.27-1.05-5.95-.46-12.2-.6-18.31-.03-1.18,0-2.37,0-3.89h-40.81c0,5.51.1,11.04-.02,16.58-.24,10.41-4.84,18.2-14.56,22.3-15.04,6.33-31.63-4.46-32.21-20.83-.21-5.96-.03-11.93-.03-18.23-7.6,0-14.89-.34-22.13.12-4.88.31-7.8,4.59-7.85,10.41-.1,10.78-.03,21.56-.04,32.34,0,5.18,0,10.36,0,16.12h5.28c76.81,0,153.61,0,230.42,0,6.4,0,9.28,1.95,9.15,6.17-.13,4.08-2.84,5.81-9.14,5.81-76.81,0-153.61,0-230.42,0h-5.3c0,2.12,0,3.92,0,5.73,0,75.06,0,150.13-.01,225.19,0,1.86.05,3.76-.31,5.56-.6,2.99-2.73,4.6-5.7,4.58-2.97-.02-5.05-1.63-5.68-4.63-.3-1.41-.28-2.91-.28-4.37-.01-97.02-.02-194.05,0-291.07,0-15.56,8.65-24.08,24.29-24.11,5.7,0,11.41,0,17.68,0,0-2.86-.03-5.47,0-8.08C42.19,10.91,51.81.62,64.2.08c12.83-.56,23.22,8.6,24.47,21.76.3,3.15.04,6.36.04,9.81h40.99c0-3.18-.09-6.21.02-9.23.45-12.43,10.66-22.29,23.08-22.36,12.63-.07,22.96,9.78,23.43,22.41.11,2.91.02,5.84.02,9.1h40.89c0-2.85-.13-5.73.02-8.6.66-12.12,9.08-21.36,20.66-22.8,10.96-1.36,21.93,5.51,24.89,16.29,1.31,4.78,1.22,9.94,1.83,15.46,5.67,0,11.61-.01,17.55,0,15.09.04,23.83,8.67,23.84,23.76.03,109.8-.02,219.6.06,329.4,0,12.34-6.06,19.8-17.23,23.83H17.19ZM293.78,320.93c-8.46,16.66-18.73,31.58-31.76,44.56-13.08,13.02-28.15,23.22-44.8,31.45h3.84c20.09,0,40.17,0,60.26,0,9.44,0,12.62-3.19,12.62-12.74.01-19.82,0-39.63,0-59.45,0-1.27-.1-2.54-.16-3.81ZM205.01,387.77c30.31-7.33,77.81-54.93,79.26-78.98-3.3,2.3-6.58,4.8-10.07,6.97-12.93,8.08-27.24,9.94-42.14,9.38-7.42-.28-9.63,2.34-9.95,9.68-.33,7.81-.47,15.72-1.81,23.39-1.95,11.18-7.63,20.8-15.3,29.57ZM251.97,42.61c0-5.99.05-11.98-.01-17.96-.07-7.51-4.8-12.65-11.49-12.61-6.53.04-11.27,5.01-11.35,12.36-.13,12.11-.15,24.22,0,36.33.09,7.36,4.85,12.17,11.49,12.14,6.62-.03,11.24-4.99,11.34-12.29.08-5.99.02-11.98.02-17.96ZM53.98,42.35c0,6.12-.07,12.24.02,18.36.1,7.06,4.66,12,11.07,12.15,6.72.16,11.62-4.53,11.74-11.86.19-12.37.2-24.75,0-37.13-.12-7.06-5.06-11.87-11.45-11.83-6.55.04-11.26,5.1-11.35,12.34-.07,5.99-.02,11.98-.01,17.96ZM164.3,42.67c0-6.25.08-12.51-.02-18.76-.12-6.96-4.9-11.88-11.33-11.87-6.4.01-11.22,4.96-11.27,11.91-.1,12.37-.1,24.74,0,37.11.06,7.04,4.77,11.81,11.32,11.79,6.56-.01,11.16-4.75,11.28-11.84.1-6.12.02-12.24.02-18.36Z"/>
  <path class="cls-1" d="M138.91,251.45c14.05-14.08,27.67-27.72,41.29-41.37,3.2-3.2,6.38-6.41,9.6-9.59,4.13-4.09,6.82-4.18,10.86-.18,7.47,7.39,14.89,14.83,22.28,22.3,3.68,3.72,3.7,6.58.03,10.3-7.29,7.38-14.66,14.68-22,22.02-18.62,18.62-37.25,37.25-55.88,55.87-4.98,4.98-7.42,4.99-12.29.12-16.37-16.36-32.74-32.72-49.1-49.1-4.66-4.66-4.65-7.04,0-11.69,7.05-7.06,14.1-14.12,21.16-21.16,4.4-4.39,7.13-4.42,11.46-.11,7.43,7.4,14.84,14.83,22.6,22.59ZM138.74,298.9c23.7-23.69,47.64-47.63,71.09-71.08-4.8-4.8-9.93-9.92-15.16-15.15-.6.57-1.57,1.46-2.5,2.39-14.59,14.57-29.17,29.15-43.75,43.73q-9.53,9.53-19.07-.02c-6.17-6.18-12.32-12.39-18.17-18.27-5.52,5.52-10.66,10.65-15.4,15.39,14.33,14.34,28.88,28.9,42.97,43Z"/>
</svg>