<?xml version="1.0" encoding="UTF-8"?>
<svg id="Layer_1" data-name="Layer 1" xmlns="http://www.w3.org/2000/svg" viewBox="0 0 383.12 383.33">
  <defs>
    <style>
      .cls-1 {
        stroke-width: 0px;
      }
    </style>
  </defs>
  <path class="cls-1" d="M45.67,0c6.53,1.91,13.41,3.08,19.54,5.88,18.13,8.29,29.3,22.66,34.3,41.89.84,3.23,1.67,6.46,2.55,9.88h4.64c89.32,0,178.63,0,267.95,0,7.82,0,9.7,2.35,7.79,9.81-10.91,42.59-21.8,85.19-32.75,127.77-4.98,19.36-19.82,30.84-39.74,30.87-17.84.03-35.68.04-53.51-.04-2.38-.01-3.63.37-4.48,3.04-3.83,12-14.37,19.43-27.22,19.45-29.19.04-58.38-.02-87.57.09-2.23,0-4.69.67-6.64,1.75-12.1,6.69-24.08,13.62-36.13,20.4-2.95,1.66-5.31,3.62-4.26,7.34,1.04,3.69,4.08,4.15,7.45,4.15,81.58-.04,163.16-.03,244.75-.02,10.68,0,18.29,6.78,18.5,16.41.2,9.02-6.79,16.65-15.78,17.23-.87.06-1.75.04-2.62.04-81.83,0-163.66.01-245.5,0-19.47,0-34.87-11.64-39.52-29.71-4.27-16.61,2.67-34.05,17.5-42.97,10.46-6.29,21.16-12.2,31.83-18.13,2.26-1.26,2.75-2.42,2.09-4.98-14.1-54.76-28.06-109.55-42.11-164.33-3.61-14.07-14.08-22.09-28.56-22.14-5.74-.02-11.49-.29-17.21.06-10.44.64-17.53-3.5-20.94-13.54v-6.74C2.17,6.66,6.66,2.17,13.48,0,24.21,0,34.94,0,45.67,0ZM71.51,37.83c2.17,5.33,4.77,10.11,6.09,15.21,14.62,56.56,29.04,113.17,43.5,169.76,1.31,5.11.55,6.71-4.18,9.4-11.71,6.64-23.44,13.23-35.1,19.95-9,5.19-13.98,13.09-14.37,23.46-.63,16.48,12.15,29.09,29.29,29.1,81.71.02,163.42.01,245.14,0,.87,0,1.76.07,2.62-.06,3.11-.51,5.03-2.36,5.04-5.52.02-3.17-1.87-5.08-4.99-5.56-1.34-.21-2.74-.08-4.11-.08-81.21,0-162.43,0-243.64,0-9.06,0-15.49-4.68-17.61-12.69-2.03-7.69,1.32-15,9.04-19.41,13.09-7.47,26.2-14.94,39.39-22.23,1.96-1.09,4.44-1.72,6.69-1.73,18.84-.13,37.67-.08,56.51-.08,11.48,0,22.95.07,34.43-.04,7.61-.07,13.98-4.79,15.37-11.19h-4.14c-32.19,0-64.37,0-96.56,0-5.32,0-6.75-1.13-8.07-6.32-7.55-29.57-15.08-59.14-22.64-88.7-6.94-27.15-13.9-54.3-20.87-81.44-1.8-7.03-4.74-13.49-9.5-19.17-2.72,2.72-5.16,5.18-7.34,7.36ZM209.23,162.27c-.69-13.65-1.37-27.15-2.06-40.98-1.55,0-2.76,0-3.98,0-6.11,0-12.22.07-18.32-.03-3.77-.06-6.07-2.36-6.02-5.69.05-3.17,2.29-5.3,5.85-5.49,1.24-.07,2.49-.02,3.74-.02,5.95,0,11.89,0,18.17,0-.73-13.92-1.43-27.41-2.15-41.02h-44.02c4.78,31.17,9.53,62.12,14.3,93.23h34.49ZM104.92,69.02c3.55,13.86,7.02,27.41,10.46,40.84h39.95c-2.11-13.75-4.18-27.25-6.26-40.84h-44.14ZM259.85,69.08h-44.12c.71,13.69,1.41,27.17,2.12,40.73h39.91c.7-13.64,1.38-27.04,2.09-40.73ZM269.03,109.84h39.87c2.09-13.65,4.16-27.13,6.24-40.7h-44.03c-.7,13.65-1.38,27.06-2.08,40.7ZM326.53,69c-2.1,13.73-4.17,27.2-6.27,40.9h39.7c3.47-13.59,6.92-27.13,10.43-40.9h-43.86ZM118.32,121.42c3.52,13.77,6.99,27.33,10.42,40.75h34.63c-2.13-13.8-4.2-27.26-6.28-40.75h-38.76ZM257.15,121.53h-38.72c.7,13.75,1.39,27.24,2.08,40.72h34.57c.69-13.61,1.37-27.01,2.07-40.72ZM307.11,121.49h-38.7c-.68,13.62-1.36,27.2-2.04,40.82h34.47c2.09-13.6,4.16-27.09,6.27-40.82ZM346.54,162.35c3.47-13.61,6.94-27.17,10.42-40.8h-38.5c-2.09,13.7-4.15,27.16-6.24,40.8h34.32ZM171.43,214.72c-2.1-13.69-4.18-27.18-6.26-40.74h-33.41c3.53,13.79,6.99,27.27,10.44,40.74h29.24ZM254.51,173.93h-33.39c.71,13.72,1.4,27.2,2.1,40.73h29.18c.71-13.61,1.4-27.01,2.12-40.73ZM176.51,173.86c2.15,13.95,4.24,27.43,6.31,40.81h29.14c-.71-13.73-1.41-27.23-2.11-40.81h-33.33ZM292.81,214.74c2.08-13.6,4.14-27.1,6.23-40.79h-33.29c-.7,13.72-1.39,27.21-2.08,40.79h29.14ZM343.62,173.85h-33.18c-2.08,13.65-4.15,27.2-6.26,41.03,2.79,0,5.02.03,7.25,0,12.42-.19,23.04-7.9,26.63-19.71,2.09-6.89,3.66-13.93,5.56-21.31ZM70.51,22.18c-5.71-4.73-12.08-8.54-19.24-9.28-11.58-1.19-23.28-1.28-34.94-1.53-3.09-.07-4.91,2.26-5.06,5.43-.14,2.95,2.15,5.46,5.34,5.6,4.22.18,8.46.17,12.69.05,11.81-.35,23.45-.03,33.24,7.69,2.78-2.77,5.29-5.28,7.97-7.95Z"/>
  <path class="cls-1" d="M157.2,355.08c.08,15.45-12.48,28.17-27.88,28.25-15.44.08-28.17-12.48-28.24-27.89-.08-15.45,12.48-28.17,27.88-28.24,15.46-.07,28.17,12.47,28.25,27.88ZM129.14,338.43c-9.28,0-16.88,7.64-16.84,16.93.04,9.12,7.53,16.66,16.64,16.75,9.28.09,16.98-7.48,17.03-16.74.05-9.28-7.56-16.93-16.83-16.93Z"/>
  <path class="cls-1" d="M349.6,355.3c-.02,15.42-12.68,28.05-28.11,28.03-15.41-.02-28.04-12.69-28.02-28.12.01-15.41,12.68-28.04,28.11-28.02,15.43.02,28.04,12.67,28.02,28.11ZM321.59,338.43c-9.28-.03-16.91,7.58-16.9,16.86.01,9.13,7.47,16.69,16.58,16.81,9.28.12,17.01-7.42,17.09-16.68.08-9.28-7.5-16.96-16.77-16.99Z"/>
  <path class="cls-1" d="M134.72,355.1c.1,3.1-2.5,5.77-5.61,5.76-2.95-.01-5.47-2.46-5.56-5.43-.1-3.1,2.5-5.77,5.6-5.76,2.95.01,5.48,2.47,5.57,5.43Z"/>
  <path class="cls-1" d="M321.47,360.86c-3.1-.04-5.66-2.74-5.52-5.84.14-2.96,2.69-5.38,5.64-5.34,2.95.04,5.46,2.52,5.52,5.47.07,3.11-2.55,5.75-5.65,5.72Z"/>
</svg>