<?xml version="1.0" encoding="UTF-8"?>
<svg id="Layer_1" data-name="Layer 1" xmlns="http://www.w3.org/2000/svg" viewBox="0 0 383.3 383.25">
  <defs>
    <style>
      .cls-1 {
        stroke-width: 0px;
      }
    </style>
  </defs>
  <path class="cls-1" d="M235.79,0c6.66,1.96,13.41,3.68,19.92,6.04,1.67.61,3.35,3.11,3.65,4.96.23,1.47-1.27,3.84-2.68,4.78-1.29.86-3.78.96-5.27.31-17.37-7.52-34.92-4.94-52.55-1.41-2.33.47-3.26,1.58-3.89,3.75-1.93,6.66-.36,12.55,3.41,18.07,5.17,7.56,8.18,15.8,6.63,25.02-.88,5.24-2.66,10.34-4.07,15.49-.32,1.17-.81,2.29-1.36,3.79,30.93,10.64,52.6,32.36,71.04,58.41,8.51-17.14,24.28-27.52,36.7-42.12-3.01-3.26-5.8-7.13-9.39-10-10.22-8.17-20.76-15.95-31.2-23.85-2.38-1.8-3.92-3.91-2.86-7.02,1.31-3.85,5.51-4.96,9.16-2.25,8.02,5.94,15.93,12,23.89,18.02,1.77,1.34,3.55,2.67,5.8,4.37,1.14-6.64.93-12.61-.71-18.52-2.89-10.42-8.98-18.52-18.07-24.34-3.15-2.02-6.42-3.84-9.51-5.94-2.76-1.87-3.45-4.97-1.76-7.52,1.73-2.61,4.22-3.63,7.12-2.14,17.73,9.06,31.15,21.86,34.03,42.54.96,6.88.07,14.13-.8,21.11-.4,3.21-.28,5.48,2.51,7.63.92-.86,1.91-1.73,2.84-2.67,17.65-17.64,35.28-35.28,52.93-52.92.88-.88,1.72-1.83,2.7-2.58,2.51-1.91,5.17-1.97,7.46.22,2.3,2.19,2.43,4.84.51,7.41-.82,1.09-1.85,2.02-2.82,2.99-28.84,28.85-57.59,57.78-86.58,86.48-10.1,10-15.66,21.66-15.74,35.92-.02,3.99-.39,7.97-.65,11.95-.26,4.01-2.58,6.36-6,6.16-3.29-.19-5.35-2.56-5.18-6.46.3-6.72.84-13.44,1.19-20.16.06-1.17.07-2.62-.52-3.52-14-21.06-29.93-40.29-52.51-52.76-5.85-3.23-12.19-5.63-18.45-8.04-1.75-.67-4.2-.54-6,.12-22.62,8.26-40.82,22.7-56.12,40.96-5.12,6.11-9.71,12.66-14.42,19.09-.73,1-1.23,2.49-1.16,3.71,1.09,20.17,2.39,40.33,3.42,60.5.63,12.29-5.18,20.94-16.43,26.62,4.17,4.09,8.19,7.97,12.14,11.94,3.09,3.11,3.35,6.4.85,8.85-2.47,2.41-5.72,2.07-8.85-1.04-6.99-6.95-13.9-13.97-20.93-20.88-3.02-2.97-4.48-6.48-4.71-10.65-1.2-20.92-2.44-41.83-3.65-62.75-.24-4.08,1.69-6.72,5.03-7.04,3.56-.34,5.88,1.9,6.15,6.3,1.24,20.29,2.43,40.58,3.6,60.88.29,5.08,1.05,5.63,5.89,3.86,6.22-2.28,10.07-8.04,9.72-15.28-.8-16.69-1.89-33.37-2.65-50.07-.35-7.65-.63-15.39-4.37-22.17-2.97-5.39-6.54-10.68-10.8-15.08-15.09-15.59-30.6-30.79-45.95-46.14-.71-.71-1.45-1.38-2.08-2.15-2.1-2.53-2.1-5.65-.05-7.78,2.26-2.34,5.38-2.49,8.01,0,4.08,3.85,8,7.88,11.94,11.88,1.4,1.42,2.65,2.98,4.1,4.63,2.45-2.24,3.91-3.87,3.01-7.24-5.79-21.73,2.65-44.62,21.32-57.11,14.84-9.93,30.36-18.68,47.83-23.29C142.15,1.2,144.81.63,147.46,0c5.24,0,10.48,0,15.72,0,6.39.97,12.87,1.53,19.13,3.01,6.07,1.44,11.8,1.6,17.91.06,6.23-1.57,12.72-2.1,19.1-3.08,5.49,0,10.98,0,16.47,0ZM184.35,15.1c-9.45-3.02-28.81-4.92-36.83-3.34-20.27,3.99-38,13.68-53.87,26.32-11.73,9.34-15.31,22.73-13.25,38.2,1.43-.99,2.42-1.64,3.37-2.35,8.66-6.53,17.33-13.05,25.95-19.63,2.67-2.04,5.34-2.79,8.11-.41,2.95,2.53,2.49,6.42-1.13,9.2-9.41,7.19-19.02,14.13-28.26,21.52-4.59,3.68-8.55,8.14-12.74,12.19,12.54,14.83,28.52,25.23,37,42.62,1.26-1.7,2.36-3.2,3.48-4.68,16.9-22.31,36.81-41.11,63.18-51.61,7.09-2.82,10.95-6.95,12.57-13.94.34-1.45.85-2.86,1.24-4.3,1.93-7.24,1.22-14.11-3.08-20.38-6.11-8.93-9.34-18.42-5.73-29.42Z"/>
  <path class="cls-1" d="M0,130.99c3.67-5.02,6.53-5.28,10.93-.9,10.34,10.3,20.54,20.75,31.01,30.91,5.76,5.59,8.71,12.21,9.66,20.07,1.89,15.72,4,31.41,6.06,47.1.67,5.12,3.01,9.44,6.66,13.09,17.56,17.55,35.1,35.12,52.67,52.66,4.03,4.02,8.77,4.39,12.26,1.11,3.6-3.39,3.36-8.25-.61-12.54-3.11-3.36-3.43-6.34-.93-8.85,2.5-2.5,5.5-2.24,8.87.89,10.91,10.13,22.65,19.06,35.61,26.51,13.48,7.75,26.36,7.31,39.63-.33,12.4-7.15,23.74-15.69,34.06-25.49,10.85-10.3,21.25-21.09,31.84-31.67.42-.42.77-.92,1.28-1.53-8.79-4.22-14.77-10.81-15.78-20.47-.68-6.5-.02-13.2.53-19.76.26-3.07,2.74-4.72,5.95-4.38,3.19.34,5,2.36,4.97,5.52-.05,4.61-.56,9.22-.62,13.83-.09,7.84,4.53,13.78,11.53,15.48,2.75.67,3.89.05,4.05-2.9.96-17.93,2.03-35.86,3.06-53.79.17-2.99.33-5.98.59-8.96.34-3.92,2.47-6.08,5.76-5.97,3.37.11,5.61,2.79,5.4,6.73-.46,8.72-1.01,17.43-1.52,26.15-.69,11.7-1.5,23.4-2.01,35.11-.24,5.4-2,9.78-5.91,13.62-13.26,13.03-26.34,26.24-39.47,39.4-1.05,1.05-2.14,2.13-2.92,3.38-2.02,3.21-1.42,7.3,1.29,9.94,2.6,2.53,6.53,3.11,9.65,1.19,1.36-.84,2.54-2.01,3.68-3.15,16.33-16.3,32.49-32.79,49.05-48.87,6.19-6.02,9.24-12.88,10.16-21.33,1.63-14.99,3.84-29.92,5.79-44.87.77-5.9,3.29-10.95,7.47-15.14,11-11.05,22.03-22.08,33.08-33.09,3.09-3.08,6.41-3.34,8.84-.86,2.47,2.52,2.18,5.68-.97,8.84-9.15,9.2-18.06,18.66-27.62,27.42-6.55,6-10.04,12.77-10.86,21.64-1.31,14.02-3.5,27.95-5.27,41.92-.97,7.68-3.94,14.42-9.41,19.91-17.95,18.04-35.9,36.08-53.99,53.98-10.16,10.05-25.67,7.11-31.72-5.78-.26-.56-.52-1.12-.98-2.12-2.47,1.86-4.89,3.5-7.06,5.42-.68.6-.93,1.95-.95,2.97-.08,6.36-.1,12.73-.02,19.09.1,8.26,5.21,14.15,13.38,15.48,16.97,2.76,33.98,5.33,50.92,8.28,17.31,3.01,29.75,12.72,37.39,28.52,1.77,3.66.8,6.78-2.31,8.28-3.05,1.47-6.04.23-7.83-3.5-6.42-13.36-17.19-20.55-31.65-22.77-16.01-2.46-32-5.07-48-7.63-13.93-2.23-23-12.78-23.13-26.93-.04-4.33,0-8.66,0-14.02-19.99,13.54-39.66,13.6-59.73-.04,0,5.21.02,9.4,0,13.58-.09,14.85-9.17,25.22-23.78,27.5-16.62,2.59-33.23,5.29-49.81,8.08-13.22,2.22-22.75,9.56-28.84,21.45-.23.44-.4.92-.64,1.35-1.76,3.17-4.58,4.29-7.45,2.97-3.05-1.4-4.16-4.43-2.58-7.87,6.4-13.92,16.85-23.57,31.67-27.49,9.48-2.51,19.33-3.61,29.03-5.24,9.46-1.59,18.96-2.97,28.41-4.62,7.67-1.34,12.64-7.37,12.75-15.27.08-5.74-.2-11.49.11-17.21.17-3.27-.79-5.43-3.6-7.02-1.5-.85-2.79-2.06-4.39-3.28-.42.75-.8,1.33-1.09,1.95-6.15,13.11-21.59,15.93-31.95,5.72-11.37-11.21-22.6-22.56-33.89-33.86-5.38-5.38-10.56-10.99-16.19-16.09-8.18-7.4-12.57-16.38-13.72-27.35-1.51-14.38-3.66-28.68-5.4-43.04-.63-5.17-2.63-9.42-6.4-13.1-9.82-9.58-19.45-19.36-29.14-29.08-1.66-1.66-3.23-3.4-4.84-5.11,0-1.25,0-2.5,0-3.74Z"/>
  <path class="cls-1" d="M0,32.94c4.49-4.5,6.82-4.48,11.44.14,6.95,6.94,13.9,13.88,20.83,20.85,2.15,2.16,2.91,4.67,1.15,7.41-1.55,2.41-3.92,3.08-6.52,2.18-1.22-.42-2.31-1.43-3.26-2.38C15.73,53.25,7.87,45.33,0,37.43c0-1.5,0-2.99,0-4.49Z"/>
  <path class="cls-1" d="M203.29,270.52c-8.81-3.97-17.79-1.7-26.86-.87-3.74.35-7.81-1.23-11.52-2.53-3.39-1.19-4.48-4.3-3.26-7.26,1.21-2.93,4.19-4.35,7.44-2.95,5.27,2.28,10.29,1.6,15.67.28,3.44-.85,7.43-.75,10.9.08,5.25,1.24,10.17,1.92,15.31-.31,3.27-1.42,6.33-.09,7.55,2.76,1.29,3,.05,6.23-3.45,7.52-3.69,1.36-7.6,2.15-11.77,3.28Z"/>
  <path class="cls-1" d="M257.71,163.59c-.02,3.62-3.2,6.21-6.86,5.38-2.78-.62-5.51-1.52-8.25-2.32-9.77-2.83-19.37-2.87-28.7,1.75-2.66,1.32-5.53,1.16-6.95-1.37-.97-1.73-.81-4.41-.37-6.49.23-1.07,2.1-1.98,3.4-2.6,10.81-5.15,22.04-5.54,33.49-2.7,3.37.84,6.72,1.8,10.04,2.85,2.62.82,4.18,2.61,4.2,5.5Z"/>
  <path class="cls-1" d="M153.72,152.42c6.62,1.86,13.34,3.49,19.86,5.69,3.78,1.28,5.03,4.67,3.69,7.73-1.32,3-4.67,4.17-8.23,2.41-10.06-4.95-20.24-4.08-30.54-1.09-1.91.55-3.79,1.23-5.71,1.71-3.13.78-6.04-.69-6.97-3.42-1.03-3.02.3-6.3,3.56-7.17,7.88-2.11,15.86-3.85,24.34-5.86Z"/>
  <path class="cls-1" d="M149.01,204.44c-5.56-1.25-11.16-2.3-16.62-3.81-3.64-1.01-5.14-4.14-4.06-7.18,1.1-3.11,4-4.55,7.6-3.3,8.68,3.02,17.27,3.04,25.96.02,3.73-1.3,6.81.3,7.78,3.57.89,2.98-.75,6-4.44,7.02-5.23,1.44-10.6,2.43-16.21,3.68Z"/>
  <path class="cls-1" d="M234.18,204.42c-5.59-1.26-11.06-2.29-16.41-3.78-3.64-1.02-5.14-4.14-4.08-7.16,1.11-3.14,3.97-4.58,7.58-3.33,8.68,3.01,17.27,3.05,25.96.03,3.73-1.3,6.83.29,7.79,3.54.89,2.99-.72,6.01-4.42,7.03-5.35,1.47-10.84,2.45-16.42,3.68Z"/>
  <path class="cls-1" d="M190.64,240.28c-4.9-1.04-9.67-1.86-14.32-3.12-3.67-.99-5.17-3.9-4.23-7.12.91-3.11,3.93-4.68,7.46-3.5,7.36,2.47,14.62,2.45,21.97-.04,3.3-1.12,6.32.41,7.29,3.3,1.01,3.02-.29,6.18-3.61,7.16-4.74,1.39-9.64,2.22-14.55,3.31Z"/>
</svg>