<?xml version="1.0" encoding="UTF-8"?>
<svg id="Layer_1" data-name="Layer 1" xmlns="http://www.w3.org/2000/svg" viewBox="0 0 390.99 278.79">
  <defs>
    <style>
      .cls-1 {
        stroke-width: 0px;
      }
    </style>
  </defs>
  <path class="cls-1" d="M0,179.03c2.11-2.76,4.91-3.47,8.31-3.44,15.02.13,30.04.05,45.06.06,1.8,0,3.27.16,3.96-2.36,2.62-9.57,9.19-15.44,18.49-16.15,9.26-.71,16.19,3.39,20.65,11.59.24.44.52.86,1.03,1.67,7.31-3.69,14.6-7.37,22.64-11.42-8.02-1.9-13.08-5.94-14.97-13.31-2.53-9.92,4.4-20.11,14.61-20.94,6.07-.49,12.21-.2,18.32-.26,1.5-.01,3,0,4.4,0,1.14-6.52,1.72-12.77,3.34-18.74,11.27-41.45,37.79-67.52,79.49-77.98,2.52-.63,3.64-1.47,3.5-4.25-.16-3.02-.09-6.17.56-9.11,1.97-8.97,10.58-15.02,19.89-14.33,9.22.68,16.47,7.62,17.43,16.78.22,2.15.42,4.35.18,6.47-.34,2.99,1.07,3.85,3.7,4.42,44.02,9.64,77.24,47,81.66,91.71.15,1.51.4,3,.67,5.03,6.01,0,11.94-.07,17.87.03,2.65.05,5.42.04,7.93.75,10.53,2.99,15.37,14.86,10.18,24.53-.54,1-1.15,1.96-1.7,2.89,5.34,9.73,4.9,14.44-2.08,22.93-15.93,19.36-31.9,38.69-47.76,58.1-6.05,7.41-13.52,12.58-22.58,15.61-22.65,7.59-45.28,15.22-67.89,22.92-9.06,3.08-18.14,3.34-27.42,1.13-22.37-5.34-44.74-10.71-67.19-15.67-3.89-.86-8.47-.58-12.3.58-12.88,3.9-25.59,8.39-38.31,12.81-1.25.43-2.57,1.82-3.05,3.07-1.03,2.7-2.7,4.23-5.54,4.49-1.01.09-2.03.1-3.05.1-27.11,0-54.22-.03-81.34.05-3.5.01-6.48-.64-8.68-3.53v-96.23ZM98.61,259.82c1.81-.56,3.01-.9,4.2-1.3,10.96-3.68,21.94-7.29,32.86-11.07,6.44-2.23,12.91-2.61,19.52-1.06,21.89,5.16,43.8,10.25,65.65,15.54,7.49,1.81,14.81,2.04,22.16-.45,22.86-7.74,45.72-15.48,68.59-23.19,6.82-2.3,12.36-6.29,16.93-11.87,13.93-17.05,27.97-34,41.96-50.99,2.51-3.04,5.02-6.08,7.51-9.14,1.53-1.88,2.01-3.92.23-5.85-1.92-2.07-4.07-1.65-6.15-.13-.62.45-1.22.92-1.83,1.38-22.19,16.64-44.35,33.32-66.62,49.84-2.01,1.49-4.77,2.9-7.14,2.84-34.47-.95-68.94-2.12-103.4-3.33-8.29-.29-15.04-6.04-16.38-13.94-.47-2.79-.08-5.72-.08-8.86-4.52,0-9.22.07-13.91-.02-3.86-.07-6.24-2.36-6.22-5.74.02-3.36,2.41-5.6,6.3-5.67,4.71-.09,9.42-.02,14.13-.02,12.85,0,25.71.08,38.56-.04,7.24-.07,11.55-6.88,8.4-12.98-2.01-3.89-5.47-4.93-9.58-4.92-21.89.04-43.78-.01-65.67.08-1.82,0-3.8.51-5.43,1.33-13.88,6.91-27.67,14-41.56,20.88-2.26,1.12-3.11,2.35-3.09,4.91.13,14.25.06,28.51.06,42.76,0,10.17,0,20.34,0,31.04ZM340.85,124.2c-1.31-42.66-38.29-87.38-92.63-87.51-55.27-.13-92.19,45.2-93.39,87.51h186.03ZM354.45,159.18h-119.36c.1.72.11,1.11.21,1.47,4.39,15.18-4.76,27.48-20.53,27.56-6.61.04-13.23-.01-19.84.01-4.59.02-7.08,2-7.13,5.58-.05,3.6,2.41,5.67,6.95,5.82,28.98.98,57.97,1.57,86.91,3.15,10.14.55,18.69-.99,25.86-8.39,1.22-1.26,2.83-2.14,4.26-3.21,13.93-10.44,27.86-20.89,42.67-32ZM11.63,267.05h16.66c0-1.61,0-3,0-4.38,0-7.51-.07-15.02.04-22.53.06-3.75,2.61-6.22,5.91-6.1,3.15.11,5.33,2.52,5.49,6.12.06,1.27.01,2.54.01,3.82,0,7.61,0,15.22,0,23.07h16.65v-79.71H11.63v79.72ZM247.83,135.92c-40.97,0-81.94,0-122.91,0-6.06,0-8.67,1.64-8.79,5.5-.13,3.98,2.76,5.95,8.81,5.95,81.94,0,163.88,0,245.83,0,5.93,0,8.66-1.76,8.79-5.59.14-3.98-2.68-5.86-8.82-5.86-40.97,0-81.94,0-122.91,0ZM87.16,267.07c0-1.58,0-2.95,0-4.32,0-21.87,0-43.75,0-65.62,0-6.49.1-12.97-.07-19.46-.13-5.08-4.01-8.91-8.93-9.21-4.64-.29-8.87,3.05-9.83,7.86-.25,1.23-.25,2.53-.25,3.8-.01,27.72-.01,55.45,0,83.17,0,1.22.14,2.43.22,3.78h18.86ZM255.3,25.2c.06-4.61,1.35-9.35-3.33-12.51-2.64-1.78-5.6-1.79-8.25-.02-4.71,3.13-3.39,7.89-3.38,12.53h14.95Z"/>
  <path class="cls-1" d="M191.35,86.09c-1.96-1.5-4.17-2.38-4.81-3.91-.7-1.7-.77-4.65.27-5.93,7.9-9.75,17.83-16.91,29.61-21.32,2.73-1.02,5.04.36,6.38,2.83,1.38,2.53.85,4.97-1.29,6.89-.82.74-1.93,1.2-2.97,1.66-8.36,3.7-15.59,8.93-21.82,15.64-1.38,1.49-3.25,2.53-5.38,4.14Z"/>
</svg>