<?xml version="1.0" encoding="UTF-8"?>
<svg id="Layer_1" data-name="Layer 1" xmlns="http://www.w3.org/2000/svg" viewBox="0 0 341.58 395.02">
  <defs>
    <style>
      .cls-1, .cls-2 {
        stroke-width: 0px;
      }

      .cls-2 {
        fill: #fff;
      }
    </style>
  </defs>
  <path class="cls-1" d="M4.14,395.02C1.03,393.44-.03,390.92,0,387.45c.12-15.81-.06-31.63.08-47.44.21-23.47,13.46-41.65,35.66-49.15,20.67-6.98,41.36-13.93,62.04-20.86,3.28-1.1,6.12-2.59,7.52-6.05.89-2.21.62-3.45-1.6-5-5.77-4.03-11.35-8.39-16.67-13-3.96-3.43-4.18-6.94-1.42-9.63,2.76-2.69,5.86-2.17,9.63,1.61,35.83,35.89,96,22.9,112.87-24.59,2.41-6.79,3.68-14.24,4.03-21.45.64-13.08.2-26.22.2-39.33,0-.63-.14-1.26-.25-2.22-45.36-6.04-90.65-6.03-136.46.06,1.39,19.36-2.03,38.58,2.56,57.5.63,2.61,1.67,5.12,2.41,7.71.95,3.31-.39,6.24-3.22,7.31-3.05,1.16-6.45-.09-7.51-3.46-1.87-5.98-3.29-12.11-4.79-18.2-.45-1.84-.53-3.78-.77-5.58-12.79-2.83-19.39-9.9-19.36-20.54.03-10.51,6.74-17.63,18.38-20.07,2.15-17.64,4.34-35.08,6.31-52.54.16-1.41-.72-3.47-1.82-4.42-14.68-12.64-20.65-28.51-16.09-47.3,4.64-19.08,17.33-30.87,36.63-34.77,5.29-1.07,10.97-.16,16.46-.37,1.56-.06,3.56-.39,4.57-1.39,19.13-18.98,48.14-19.07,66.98,0,1.57,1.59,2.88,1.85,5.03,1.49,8.8-1.46,17.42-.6,25.7,2.88,4.11,1.73,5.7,4.84,4.26,8.15-1.36,3.13-4.55,4.17-8.52,2.57-7.01-2.82-14.17-3.43-21.54-1.82-4.66,1.01-8.66-.15-11.83-3.79-14.11-16.22-39.06-16.08-53,.06-3.15,3.65-7.18,4.65-11.86,3.73-17.03-3.36-32.83,4.62-39.71,19.98-6.73,15.03-2.28,31.81,11.37,42.28,4.19,3.21,5.99,7.12,5.19,12.38-.91,5.97-1.6,11.97-2.36,17.96-.74,5.86-1.46,11.72-2.28,18.31,44.72-5.54,89.27-5.67,134.3.02-.72-6.31-1.32-12.01-2.03-17.7-.85-6.75-1.79-13.5-2.72-20.24-.66-4.73.9-8.44,4.54-11.6,13.31-11.55,16.61-26.48,9.65-42.77-1.66-3.89-.81-7.03,2.32-8.54,3.28-1.59,6.25-.17,8.25,3.93,8.72,17.86,4.85,39.77-9.79,53.47-2.65,2.48-3.49,4.59-2.89,8.2,1.43,8.61,2.27,17.32,3.28,26,.99,8.52,1.9,17.05,2.86,25.7,12.34,3.09,18.83,10.15,18.67,20.61-.16,10.34-6.97,17.43-18.73,19.93-1.89,7.55-3.18,15.06-5.66,22.15-5.77,16.55-16.41,29.5-30.93,39.28-4.2,2.83-4.68,6.7-.85,10.14,1.56,1.39,3.69,2.3,5.72,2.99,19.68,6.7,39.41,13.25,59.08,19.98,5.06,1.73,9.97,3.93,15.29,6.05,0-3.51.58-7.26-.25-10.67-.41-1.68-3.26-3.28-5.32-3.92-2.24-.7-4.85-.13-7.28-.3-9.86-.71-16.72-7.3-16.87-17.11-.27-18.64-.28-37.29,0-55.92.15-10.12,7.5-17.01,17.66-17.06,22.89-.11,45.78-.11,68.67,0,10.53.05,17.61,7.18,17.68,17.77.12,18.13.11,36.26,0,54.38-.06,10.48-6.69,17.31-17.16,17.98-2.18.14-4.37,0-6.55.11-3.95.18-6.21,2.03-6.26,5.85-.16,11.83-.12,23.66,0,35.48.01.98,1.05,2.27,1.97,2.88,8.64,5.74,12.79,13.8,12.76,24.09-.02,6.56.2,13.13-.16,19.66-.69,12.62-8.58,21.89-20.85,25.03-.61.16-1.17.47-1.76.7h-39.35c-6.71-2.69-11.33-7.14-11.41-14.78-.14-14.64-.15-29.29,0-43.93.08-7.74,5.12-13.25,12.75-14.62.59-.11,1.17-.31,1.39-.37,2.35-7.41-.51-12.19-6.82-15.29-2.76-1.35-5.47-2.87-8.36-3.86-17.96-6.15-35.94-12.22-53.97-18.13-1.7-.56-4.08-.37-5.72.39-20.62,9.5-41.11,19.27-61.75,28.73-10.31,4.73-15.06,12.51-14.97,23.73.14,16.7-.04,33.4.09,50.1.03,3.54-.82,6.28-4,8.04h-3.86c-2.96-1.95-3.86-4.69-3.83-8.2.13-16.18.3-32.37-.02-48.55-.27-13.77,4.44-24.8,15.91-32.7.14-.1.12-.42.23-.86-7.94-6.15-16.02-12.28-23.91-18.63-2.15-1.73-3.94-2.07-6.55-1.17-16.36,5.65-32.78,11.13-49.18,16.65-18.65,6.28-28.5,19.94-28.55,39.68-.04,15.03-.07,30.06.04,45.08.03,3.55-.6,6.57-3.68,8.69h-3.86ZM299.87,321.43c0-1.78,0-3.18,0-4.57,0-9.64-.07-19.27.03-28.91.09-8.81,5.03-15.74,12.78-17.59,2.95-.7,6.12-.57,9.19-.64,6.38-.15,8.08-1.73,8.09-7.99.02-17.09.02-34.17,0-51.26,0-6.3-1.63-7.87-8.08-7.88-21.59-.01-43.17-.01-64.76,0-6.5,0-8.15,1.69-8.16,8.28-.02,15.8,0,31.6,0,47.41,0,10.77.57,11.35,11.29,11.42,11.75.08,18.71,6.94,18.78,18.64.06,9.63,0,19.27.02,28.91,0,1.36.13,2.72.2,4.18h20.62ZM264.27,358.38c0,6.8.05,13.61-.02,20.41-.03,3.18,1.25,4.71,4.58,4.68,10.14-.09,20.29.05,30.43-.06,8.37-.1,14.82-5.95,15.25-14.28.38-7.29.38-14.64-.03-21.94-.46-8.18-6.82-13.9-15.05-13.99-10.14-.12-20.29.05-30.43-.08-3.54-.05-4.81,1.47-4.76,4.85.1,6.8.03,13.61.03,20.41ZM118.28,265.81c-3.92,4.95-7.56,9.55-11.31,14.28,7.26,5.63,15.01,11.54,22.63,17.62,1.88,1.5,3.33,1.55,5.47.53,14-6.68,28.07-13.2,42.11-19.79.99-.47,1.93-1.05,2.47-1.35-2.5-4.16-4.85-8.06-7.32-12.15-17.99,6.67-36.46,6.9-54.05.86ZM64.19,166.9c-5.43,1.3-7.9,4.32-7.63,8.91.25,4.23,3.16,7.1,7.63,7.45v-16.36ZM224.12,183.38c4.93-.87,7.85-4.3,7.55-8.68-.29-4.25-3.28-7.19-7.55-7.4v16.08Z"/>
  <path class="cls-1" d="M62,395.02c-3.09-1.58-4.18-4.09-4.13-7.55.15-10.78-.12-21.57.22-32.34.06-1.99,1.77-4.53,3.48-5.67,1.22-.81,4.12-.24,5.53.75,1.3.92,2.25,3.23,2.28,4.94.2,11.16.29,22.34-.06,33.5-.07,2.16-2.25,4.25-3.46,6.38h-3.86Z"/>
  <path class="cls-1" d="M183.31,78.27c-.18.6-.42,1.73-.85,2.78-3.57,8.64-7.12,17.29-10.8,25.89-1.7,3.96-5.15,5.31-8.34,3.44-2.88-1.69-3.67-4.33-2.47-7.28,3.74-9.26,7.59-18.49,11.53-27.67,1.19-2.77,3.56-4.1,6.59-3.32,2.77.72,4.31,2.64,4.34,6.16Z"/>
  <path class="cls-1" d="M126.46,106.18c-1.72,1.61-3.18,3.89-5.22,4.67-3,1.15-5.49-.58-6.75-3.55-3.25-7.67-6.43-15.36-9.61-23.05-.73-1.77-1.6-3.53-1.99-5.39-.63-2.99.54-5.31,3.45-6.5,2.97-1.21,5.72-.26,6.91,2.42,4.25,9.6,8.14,19.35,12.15,29.06.19.46.22,1,.32,1.5.25.28.5.56.75.84Z"/>
  <path class="cls-1" d="M148.79,91.54c0,4.36.09,8.72-.02,13.07-.11,4.19-2.45,6.64-5.94,6.52-3.34-.11-5.51-2.48-5.55-6.53-.09-8.71-.09-17.43,0-26.15.04-3.95,2.31-6.45,5.55-6.57,3.37-.13,5.84,2.48,5.94,6.58.11,4.35.03,8.71.03,13.07Z"/>
  <path class="cls-1" d="M144.44,227.73c-4.76-1.77-9.29-3.1-13.48-5.13-3.23-1.56-3.91-5.09-2.27-7.89,1.63-2.77,4.91-3.74,8.04-1.87,5.06,3.02,9.82,2.93,14.84-.09,2.92-1.76,6.15-.78,7.76,1.8,1.69,2.71,1.09,6.39-2,7.97-4.02,2.06-8.4,3.43-12.9,5.21Z"/>
  <path class="cls-1" d="M116.03,181.63c0,1.92.12,3.85-.03,5.76-.26,3.26-2.14,5.23-5.38,5.44-3.29.21-5.65-1.66-5.92-4.8-.4-4.57-.41-9.23.03-13.8.3-3.15,2.7-4.89,6.02-4.65,3.11.23,4.94,2.08,5.22,5.14.21,2.29.04,4.61.04,6.91,0,0,.01,0,.02,0Z"/>
  <path class="cls-1" d="M183.59,181.34c0,2.05.18,4.11-.04,6.13-.37,3.37-2.8,5.49-5.86,5.42-3.07-.08-5.38-2.3-5.51-5.71-.15-4.09-.14-8.19.03-12.28.14-3.3,2.1-5.18,5.4-5.32,3.32-.14,5.39,1.66,5.84,4.87.31,2.26.06,4.59.06,6.89.03,0,.05,0,.08,0Z"/>
  <path class="cls-2" d="M118.28,265.81c17.59,6.05,36.07,5.81,54.05-.86,2.46,4.09,4.81,7.99,7.32,12.15-.54.3-1.48.89-2.47,1.35-14.04,6.59-28.11,13.11-42.11,19.79-2.14,1.02-3.59.96-5.47-.53-7.62-6.08-15.37-11.99-22.63-17.62,3.75-4.73,7.39-9.33,11.31-14.28Z"/>
  <path class="cls-1" d="M139.76,333.33c3.08,0,5.59,2.46,5.68,5.57.09,3.28-2.46,5.95-5.69,5.94-3.03,0-5.65-2.54-5.77-5.57-.12-3.15,2.59-5.94,5.78-5.94Z"/>
  <path class="cls-1" d="M174.48,344.84c-3.18,0-5.89-2.8-5.78-5.94.11-3.03,2.73-5.56,5.77-5.57,3.23-.01,5.78,2.66,5.69,5.94-.09,3.11-2.6,5.57-5.68,5.57Z"/>
  <path class="cls-1" d="M139.75,368.05c3.08,0,5.59,2.45,5.68,5.56.1,3.29-2.45,5.96-5.68,5.95-3.03,0-5.65-2.53-5.77-5.56-.12-3.15,2.58-5.94,5.77-5.95Z"/>
  <path class="cls-1" d="M174.53,368.05c3.08.02,5.57,2.5,5.63,5.61.07,3.27-2.52,5.93-5.74,5.9-3.03-.03-5.63-2.59-5.72-5.62-.09-3.15,2.64-5.91,5.83-5.89Z"/>
  <path class="cls-1" d="M272.09,236.14c0,5.13.07,10.26-.02,15.38-.07,4.07-2.14,6.37-5.56,6.45-3.54.08-5.91-2.33-5.95-6.53-.1-10.25-.1-20.51,0-30.77.04-4.18,2.47-6.57,6.03-6.44,3.39.12,5.41,2.43,5.48,6.53.08,5.13.02,10.26.02,15.38Z"/>
  <path class="cls-1" d="M295.23,236.11c0,5.13.06,10.26-.02,15.38-.07,4.08-2.12,6.39-5.52,6.48-3.54.1-5.94-2.31-5.98-6.5-.1-10.25-.1-20.51,0-30.77.04-4.19,2.44-6.59,5.99-6.48,3.41.1,5.45,2.4,5.51,6.49.08,5.13.02,10.26.02,15.38Z"/>
  <path class="cls-1" d="M318.38,236.23c0,5.13.07,10.26-.02,15.38-.08,4.06-2.19,6.33-5.65,6.36-3.4.03-5.79-2.29-5.84-6.24-.12-10.38-.11-20.77,0-31.15.04-4,2.33-6.32,5.73-6.36,3.56-.04,5.71,2.34,5.77,6.62.08,5.13.02,10.26.02,15.38Z"/>
</svg>