<?xml version="1.0" encoding="UTF-8"?>
<svg id="Layer_1" data-name="Layer 1" xmlns="http://www.w3.org/2000/svg" viewBox="0 0 408.51 330.17">
  <defs>
    <style>
      .cls-1, .cls-2 {
        stroke-width: 0px;
      }

      .cls-2 {
        fill: #fff;
      }
    </style>
  </defs>
  <path class="cls-1" d="M408.51,95.79c-2.14,7.96-7.62,12.49-14.88,15.96-30.22,14.41-60.37,28.98-90.35,43.87-8.33,4.14-16.19,5.69-25.03.54,1.47,6.22,3.1,11.79,4.06,17.48,4.95,29.4-2.11,56.35-18.01,80.97-25.49,39.48-62.62,62.18-107.94,71.77-35.55,7.52-70.16,4.17-102.77-12.79-22.8-11.86-39.63-29.46-50.45-53.01-5.06-11.03-4.11-20.74,3.61-29.58,3.51-4.02,3.74-7.44,2.44-12.4-1.91-7.27-2.87-14.86-3.51-22.38-.77-9.04,5.63-16.44,14.61-17.25,3.8-.34,5.03-1.91,5.01-5.53-.1-14.64-.18-29.27.03-43.91.15-10.55,8.03-19.07,18.64-20.73,9.66-1.52,19.79,4.36,23.03,13.9,1.12,3.3,1.4,7.04,1.33,10.56-.32,15.75.39,31.38,4.03,46.77.31,1.29.66,2.56,1.07,4.15,9.68-4.23,19.23-8.41,29.13-12.74-5.34-20.43.03-38.32,13.62-54.29,2.88,3.24,5.57,6.25,8.5,9.54-9.07,11.12-13.9,24.35-9.97,39.78,13.61-4.25,26.92-8.75,40.43-12.55,27.97-7.86,56.29-14.14,85.57-13.15,8.23.28,16.42,2.68,24.56,4.42,3.29.7,3.91.53,3.36-2.76-2.13-12.78,3.41-21.65,15.24-26.79,20.83-9.05,41.39-18.72,62.06-28.14,10.4-4.74,21.01-9.05,31.12-14.34,11.34-5.93,24.59-2.79,30.07,12.23.4,1.1.92,2.15,1.38,3.23v7.19ZM22.57,269.3c1.03,1.56,1.77,2.78,2.62,3.93,8.24,11.2,18.5,20.17,30.58,26.99,27.98,15.8,58.06,19.93,89.45,15.15,37.68-5.74,70.03-22.07,95.55-50.69,19.32-21.67,30.56-46.8,30.26-76.36-.02-1.62-.27-3.24-.35-4.2-9.1,7.1-17.68,14.71-27.14,20.99-34.86,23.12-73.29,38.53-113.21,50.21-34.91,10.21-70.24,18.31-107.76,13.98ZM119.44,178.31c2.52,3.67,4.37,6.38,6.38,9.3-3.21,2.69-6.33,5.29-9.77,8.17-3.03-4.3-5.81-8.27-8.79-12.5-9.94,4.4-19.73,8.73-29.34,12.98,0,.82-.08,1.11.01,1.33,9.4,23.51,26.06,38.66,51.06,44.1,1.2.26,2.66-.02,3.85-.46,17.68-6.49,35.27-13.26,53.04-19.49,9.41-3.3,15.6-9.86,20.39-18.02,2.6-4.44,4.84-9.18,6.59-14.01,1.57-4.33,2.43-8.95,3.29-13.51,1.81-9.57,9.39-16.37,18.72-16.51,9.43-.14,17.4,6.4,19.24,15.83.29,1.46.39,2.96.67,5.28,2.98-3.43,5.61-6.07,7.79-9.03,6.34-8.62,4.75-13.26-5.51-16.11-10.67-2.96-21.57-2.69-32.48-1.9-21.55,1.55-42.63,5.83-63.37,11.69-13.75,3.88-27.33,8.4-41.77,12.88ZM107.98,248.47c-1.75-1-2.4-1.42-3.09-1.77-12.75-6.51-22.82-15.95-30.47-27.98-11.17-17.59-16.26-37.15-17.91-57.64-.82-10.18-.58-20.45-.85-30.68-.14-5.21-3.8-8.97-8.69-9.02-4.88-.05-8.62,3.65-8.91,8.85-.06,1.06-.02,2.13-.02,3.19,0,13.57.02,27.13,0,40.7-.03,9.94-5.65,16.36-15.43,17.42-2.99.32-4.39,1.67-4.21,4.58.92,15.24,4.35,29.78,13.34,42.39,9.41,13.19,22.31,19.19,38.62,17.08,4.08-.53,8.18-1.04,12.22-1.83,8.15-1.59,16.27-3.37,25.43-5.28ZM313.82,136.2c.08-.03.82-.3,1.52-.64,25.05-12.2,50.1-24.38,75.13-36.61,5.35-2.61,6.42-5.55,4.04-10.53-2.7-5.63-5.37-6.59-11.18-3.94-24.98,11.39-49.96,22.79-74.93,34.2-1.02.47-2,1.02-2.26,1.15,2.65,5.64,5.12,10.92,7.68,16.37ZM222.34,203.39c2.96-1.79,5.97-4.07,9.32-5.54,8.44-3.69,9.24-11.23,9.88-18.82.29-3.46-2.36-6.27-5.66-6.51-3.52-.25-5.95,1.5-6.84,4.83-2.33,8.63-4.46,17.3-6.7,26.04ZM281.13,136.49c5.74-3.04,8.67-2.97,11.04.04,2.24,2.84,1.74,5.69-1.77,10.1,5.84-.45,9.59-4.22,9.49-9.52-.1-4.8-3.91-8.9-8.69-9.33-5.13-.47-9.18,2.92-10.08,8.72ZM30.93,257.65c-5.26-6.59-9.85-12.33-14.55-18.22-.5.69-1.26,1.59-1.85,2.58-3.64,6.11-2.47,9.87,4.23,12.38,3.68,1.38,7.61,2.06,12.17,3.26Z"/>
  <path class="cls-1" d="M102.04,38.28c-10.63.03-19.3-8.63-19.27-19.22C82.8,8.64,91.36.06,101.78,0c10.6-.06,19.27,8.58,19.27,19.21,0,10.39-8.63,19.04-19.01,19.07ZM108.27,19.09c-.02-3.43-2.87-6.29-6.3-6.33-3.43-.03-6.33,2.77-6.42,6.2-.09,3.59,2.91,6.6,6.5,6.52,3.42-.07,6.24-2.97,6.22-6.4Z"/>
  <path class="cls-1" d="M57.84,44.71c10.34.27,18.75,9.16,18.5,19.56-.25,10.6-9.16,19.02-19.77,18.7-10.38-.31-18.71-9.12-18.5-19.57.21-10.55,9.12-18.97,19.77-18.7ZM57.5,57.48c-3.4-.18-6.44,2.53-6.66,5.95-.23,3.41,2.42,6.48,5.83,6.76,3.55.29,6.74-2.55,6.88-6.13.13-3.4-2.62-6.4-6.05-6.58Z"/>
  <path class="cls-1" d="M108.2,82.76c1.14-17.15,9.98-30.1,20.88-42.44,2.88,3.23,5.56,6.25,8.49,9.54-7.72,9.13-15.36,19.28-16.66,32.9h-12.71Z"/>
  <path class="cls-1" d="M24.98,95.6h-12.29v-12.28h12.29v12.28Z"/>
  <path class="cls-1" d="M82.94,101.94v-12.24h12.31v12.24h-12.31Z"/>
  <path class="cls-1" d="M88.98,147.08v12.33h-12.4v-12.33h12.4Z"/>
  <path class="cls-2" d="M281.13,136.49c.9-5.81,4.95-9.19,10.08-8.72,4.77.43,8.59,4.54,8.69,9.33.11,5.31-3.65,9.07-9.49,9.52,3.51-4.41,4.01-7.25,1.77-10.1-2.37-3.01-5.3-3.08-11.04-.04Z"/>
  <path class="cls-2" d="M30.93,257.65c-4.56-1.19-8.5-1.88-12.17-3.26-6.71-2.51-7.87-6.27-4.23-12.38.59-.99,1.35-1.89,1.85-2.58,4.7,5.88,9.29,11.63,14.55,18.22Z"/>
  <path class="cls-1" d="M114.85,216.85v-12.25h12.42v12.25h-12.42Z"/>
  <path class="cls-1" d="M57.09,223.8c2.45,8.96,8.93,14.59,16.33,20.01-2.27,3.44-4.49,6.81-6.98,10.57-11.03-7.69-19.91-16.45-22.15-30.58h12.8Z"/>
</svg>