<?xml version="1.0" encoding="UTF-8"?>
<svg id="Layer_1" data-name="Layer 1" xmlns="http://www.w3.org/2000/svg" viewBox="0 0 383.27 332.22">
  <defs>
    <style>
      .cls-1 {
        stroke-width: 0px;
      }
    </style>
  </defs>
  <path class="cls-1" d="M38.28,77.16c0-4.91,0-8.62,0-12.32,0-18.64,0-37.27,0-55.91,0-1.2-.11-2.43.13-3.58C39.07,2.1,41.12.11,44.46.02c3.54-.09,5.73,1.91,6.45,5.32.27,1.28.14,2.65.14,3.98,0,20.77,0,41.53,0,62.3v4.65c7.9-.32,15.32-1.41,22.23-4.63,1.13-.53,2.27-2.59,2.2-3.88-1.02-17.94-2.26-35.86-3.43-53.78-.16-2.39-.31-4.79-.3-7.18.01-3.86,2.4-6.54,5.87-6.78,3.35-.23,6.35,2.23,6.76,5.98.48,4.36.64,8.76.91,13.14.82,13.15,1.63,26.29,2.5,40.3,32.18-28.28,69.2-42.18,111.46-40.06,42.34,2.13,77.82,19.64,107.35,51.45,0-5.08-.02-9.25,0-13.42.17-26.09,17.22-49,42.47-55.19C358.21-.02,368.04.45,377.57.11c3.24-.11,5.18,2.42,5.63,5.73.12.92.06,1.86.06,2.79,0,98.9.01,197.81,0,296.71,0,14.47-9.67,25.53-23.24,26.77-14.83,1.35-27.72-10.23-27.82-25.34-.15-22.23-.04-44.46-.04-66.69,0-1.43,0-2.87,0-5.26-25.67,51.35-65.6,82.68-122.02,89.56-56.49,6.89-102.76-14.02-139.91-57.63,0,1.86,0,3.12,0,4.39,0,11.71.07,23.43-.02,35.14-.12,14.71-11.41,26.01-25.75,25.91-14.14-.1-25.28-11.38-25.31-25.95-.07-39.8,0-79.6-.07-119.4,0-4.56,1.85-7.32,6.43-8.21,0-20.69.03-41.19-.1-61.68,0-.93-1.38-2.41-2.38-2.7C7.69,109.82-.86,98.18.07,82.09,1.52,57.12,3.2,32.16,4.82,7.19,5.11,2.66,7.95-.24,11.7.02c3.84.26,6.13,3.16,5.84,7.97-1.16,19.39-2.31,38.79-3.76,58.16-.27,3.62.65,5.59,4.05,6.38,6.57,1.52,13.15,2.98,20.45,4.63ZM63.83,178.45c5.6,2.19,6.38,3.35,6.39,9.31,0,17.44-.05,34.87.08,52.31.01,1.99.58,4.28,1.66,5.91,32.34,48.96,78.03,72.59,136.22,65.61,58.48-7.01,97.56-40.83,117.28-96.46,2.62-7.4,3.84-15.31,5.69-22.89-1.1-.38-1.34-.54-1.59-.55-4.66-.03-9.31-.05-13.97-.06-7.06-.02-8.98-1.92-8.98-8.99,0-29.15.04-58.3-.09-87.44,0-2.07-.73-4.5-1.97-6.13-25.27-33.4-58.71-52.7-100.48-56.4-43.01-3.8-80.04,10.1-111.27,39.81-2.84,2.71-3.89,5.35-3.62,9.35,1.08,16.36-7.27,27.77-22.97,32.46-1.02.3-2.27,2.09-2.27,3.19-.14,20.23-.1,40.45-.1,60.98ZM319.37,178.56h50.91V12.27c-5.62.57-11.11.56-16.31,1.76-20.73,4.79-34.53,22.47-34.57,44.08-.08,39.13-.02,78.26-.02,117.39v3.05ZM31.89,191.8c0,13.76,0,27.18,0,40.6,0,24.35.03,48.7-.02,73.05-.01,5.74,2.17,10.09,7.35,12.66,8.74,4.33,18.2-2.14,18.21-12.5.04-37.12.02-74.24,0-111.37,0-.76-.09-1.52-.15-2.44h-25.39ZM344.93,191.81c0,12.14,0,23.96,0,35.78,0,25.95.03,51.89-.02,77.84-.01,5.73,2.15,10.1,7.33,12.67,8.73,4.34,18.22-2.12,18.23-12.47.04-37.12.02-74.24.01-111.37,0-.76-.08-1.53-.13-2.45h-25.41ZM38.46,178.62h12.35v-63.37h-12.35v63.37ZM13.06,84.69c-.73,8.91,6.31,17.08,15.5,17.36,10.77.33,21.56.35,32.33-.01,9.21-.31,16.35-8.75,15.31-17.32-21.04,6.31-42.09,6.38-63.13-.03Z"/>
  <path class="cls-1" d="M89.39,172.45c-.04-56.28,45.86-102.27,102-102.22,56.74.05,102.5,45.91,102.42,102.65-.07,55.98-46.01,101.82-102.03,101.81-56.59,0-102.36-45.71-102.4-102.24ZM102.16,172.07c-.14,49.2,39.66,89.57,88.54,89.84,49.79.27,90.13-39.6,90.33-89.28.2-48.98-39.86-89.43-88.76-89.62-49.65-.19-89.98,39.67-90.11,89.06Z"/>
</svg>