<?xml version="1.0" encoding="UTF-8"?>
<svg id="Layer_1" data-name="Layer 1" xmlns="http://www.w3.org/2000/svg" viewBox="0 0 535.5 213">
  <defs>
    <style>
      .cls-1 {
        stroke-width: 0px;
      }

      .cls-1, .cls-2 {
        fill: #ffc600;
      }

      .cls-3 {
        fill: #fff;
      }

      .cls-4 {
        font-family: MADEOuterSans-Thin, 'MADE Outer Sans';
        font-size: 200px;
        font-weight: 200;
      }
    </style>
  </defs>
  <text class="cls-4" transform="translate(95.5 176)"><tspan class="cls-3" x="0" y="0">LB</tspan><tspan class="cls-2" x="244.2" y="0">M</tspan></text>
  <path class="cls-1" d="M83.28,205.81l-26.35-26.35c-7.04-7.04-10.91-16.4-10.91-26.35,0-5.79,1.35-11.51,3.9-16.63l6.53,6.53c-1.21,3.23-1.83,6.62-1.83,10.1,0,7.65,2.98,14.85,8.39,20.26l20.26,20.26,20.26-20.26c5.41-5.41,8.39-12.61,8.39-20.26,0-5.77-1.7-11.32-4.91-16.05l-.65-.96-23.1,23.09-46.61-46.61-4.4,4.4c-2.8,2.8-6.52,4.34-10.49,4.34s-7.69-1.54-10.49-4.34c-2.8-2.8-4.34-6.52-4.34-10.49s1.54-7.69,4.34-10.49c2.79-2.79,6.51-4.33,10.47-4.33,3.52,0,6.87,1.22,9.54,3.47l-6.15,6.15c-1.01-.66-2.18-1.02-3.38-1.02-1.66,0-3.23.65-4.4,1.82-2.43,2.43-2.43,6.38,0,8.81,1.17,1.17,2.74,1.82,4.4,1.82s3.23-.65,4.4-1.82l22.39-22.39,6.08,6.09-11.9,11.9,17.22,17.22,17.22-17.22-20.26-20.26c-3.51-3.5-6.23-7.6-8.1-12.16-5.73-13.97-2.55-29.88,8.1-40.54l26.35-26.35,26.35,26.35c11.27,11.27,14.06,28.76,7,42.97l-6.52-6.52c1.21-3.23,1.83-6.62,1.83-10.1,0-7.65-2.98-14.85-8.39-20.26l-20.26-20.26-20.26,20.26c-9.69,9.69-11.15,24.96-3.48,36.31l.65.96,23.09-23.09,46.61,46.61,4.4-4.4c2.8-2.8,6.53-4.35,10.49-4.35s7.69,1.54,10.49,4.35c5.78,5.78,5.78,15.19,0,20.98-2.8,2.8-6.52,4.34-10.49,4.34-3.51,0-6.85-1.23-9.52-3.47l6.15-6.15c1.01.65,2.19,1.01,3.4,1.01,1.65,0,3.21-.64,4.38-1.81,1.18-1.18,1.82-2.74,1.82-4.4s-.65-3.23-1.82-4.4c-1.18-1.18-2.74-1.82-4.4-1.82s-3.23.65-4.4,1.82l-22.39,22.39-6.09-6.08,11.9-11.9-17.22-17.22-40.53,40.53,17.22,17.22,17.22-17.22-11.9-11.9,6.09-6.09,14.94,14.94c3.53,3.53,6.27,7.64,8.14,12.2,1.84,4.48,2.77,9.24,2.77,14.15,0,9.95-3.88,19.31-10.91,26.35l-26.35,26.35ZM83.28,65.97l-17.22,17.22,17.22,17.22,17.22-17.22-17.22-17.22Z"/>
</svg>