<?xml version="1.0" encoding="utf-8"?>
<!-- Generator: Adobe Illustrator 28.1.0, SVG Export Plug-In . SVG Version: 6.00 Build 0)  -->
<svg version="1.1" id="Layer_1" xmlns="http://www.w3.org/2000/svg" xmlns:xlink="http://www.w3.org/1999/xlink" x="0px" y="0px"
	 viewBox="0 0 535.5 213" style="enable-background:new 0 0 535.5 213;" xml:space="preserve">
<style type="text/css">
	.st0{font-family:'MADEOuterSans-Thin';}
	.st1{font-size:200px;}
	.st2{fill:#FFC600;}
</style>
<text transform="matrix(1 0 0 1 114.5 176)" class="st0 st1">L</text>
<text transform="matrix(1 0 0 1 336.3383 176)" class="st2 st0 st1">M</text>
<path class="st2" d="M83.3,205.8l-26.3-26.4c-7-7-10.9-16.4-10.9-26.4c0-5.8,1.3-11.5,3.9-16.6l6.5,6.5c-1.2,3.2-1.8,6.6-1.8,10.1
	c0,7.6,3,14.9,8.4,20.3l20.3,20.3l20.3-20.3c5.4-5.4,8.4-12.6,8.4-20.3c0-5.8-1.7-11.3-4.9-16.1l-0.7-1l-23.1,23.1l-46.6-46.6
	l-4.4,4.4c-2.8,2.8-6.5,4.3-10.5,4.3s-7.7-1.5-10.5-4.3c-2.8-2.8-4.3-6.5-4.3-10.5s1.5-7.7,4.3-10.5c2.8-2.8,6.5-4.3,10.5-4.3
	c3.5,0,6.9,1.2,9.5,3.5l-6.1,6.2c-1-0.7-2.2-1-3.4-1c-1.7,0-3.2,0.7-4.4,1.8c-2.4,2.4-2.4,6.4,0,8.8c1.2,1.2,2.7,1.8,4.4,1.8
	s3.2-0.7,4.4-1.8l22.4-22.4l6.1,6.1l-11.9,11.9l17.2,17.2l17.2-17.2L56.9,86.2c-3.5-3.5-6.2-7.6-8.1-12.2c-5.7-14-2.5-29.9,8.1-40.5
	L83.2,7.2l26.3,26.4c11.3,11.3,14.1,28.8,7,43l-6.5-6.5c1.2-3.2,1.8-6.6,1.8-10.1c0-7.7-3-14.8-8.4-20.3L83.3,19.4L63,39.6
	c-9.7,9.7-11.2,25-3.5,36.3l0.7,1l23.1-23.1l46.6,46.6l4.4-4.4c2.8-2.8,6.5-4.3,10.5-4.3s7.7,1.5,10.5,4.3c5.8,5.8,5.8,15.2,0,21
	c-2.8,2.8-6.5,4.3-10.5,4.3c-3.5,0-6.9-1.2-9.5-3.5l6.1-6.2c1,0.7,2.2,1,3.4,1c1.6,0,3.2-0.6,4.4-1.8c1.2-1.2,1.8-2.7,1.8-4.4
	s-0.6-3.2-1.8-4.4c-1.2-1.2-2.7-1.8-4.4-1.8s-3.2,0.7-4.4,1.8L118,124.5l-6.1-6.1l11.9-11.9l-17.2-17.2L66,129.8l17.2,17.2
	l17.2-17.2l-11.9-11.9l6.1-6.1l14.9,14.9c3.5,3.5,6.3,7.6,8.1,12.2c1.8,4.5,2.8,9.2,2.8,14.1c0,9.9-3.9,19.3-10.9,26.4L83.3,205.8
	L83.3,205.8z M83.3,66L66.1,83.2l17.2,17.2l17.2-17.2L83.3,66z"/>
<text transform="matrix(1 0 0 1 213.7558 176)" class="st0 st1">B</text>
</svg>
