<?xml version="1.0" encoding="UTF-8"?>
<svg id="Layer_1" data-name="Layer 1" xmlns="http://www.w3.org/2000/svg" viewBox="0 0 384 384">
  <defs>
    <style>
      .cls-1, .cls-2 {
        stroke-width: 0px;
      }

      .cls-2 {
        fill: #fff;
      }
    </style>
  </defs>
  <path class="cls-2" d="M193.85,384H0V0h384v124.94c-.2-.45-.5-.88-.58-1.34-2.32-13.29-9.55-23.02-21.22-29.63-9.11-5.16-18.14-10.46-27.2-15.69-6.26-3.62-12.49-7.28-18.79-10.82-2.84-1.6-6.09-1.85-8.32.55-1.6,1.72-3.18,4.75-2.74,6.74.53,2.4,2.81,5,5.03,6.33,14.65,8.76,29.52,17.16,44.28,25.75,14.72,8.56,18.62,22.95,10.19,37.64-11.48,20-23.04,39.95-34.57,59.92-.51.88-1.15,1.67-2.26,3.25,0-2.34,0-3.69,0-5.04,0-15.72.08-31.45-.03-47.17-.09-13.14-9.32-23.15-22.32-24.1-3.27-.24-6.62.54-10.41.9,0-6.83.11-13.65-.03-20.47-.16-8.07-3.84-14.39-10.4-18.89-6.86-4.7-14.39-5.04-22.24-2.46-3.24-11.27-10.17-18.61-22.07-19.26-13.49-.74-21.44,6.81-24.94,18.26-5.22,0-10.03-.75-14.52.15-11.33,2.26-18.39,11.74-18.42,23.97-.07,28.2-.02,56.4-.02,84.6,0,1.23,0,2.46,0,3.69-3.21-3.59-5.54-7.25-7.92-10.89-7.82-11.93-21.61-16.23-33.93-10.61-12.46,5.69-18.6,18.83-14.29,32.43,3.27,10.3,7.61,20.25,11.49,30.36.37.96.84,1.89,1.57,3.53-1.49-.8-2.24-1.18-2.97-1.6-15.12-8.72-30.23-17.43-45.34-26.16-16.17-9.34-19.98-23.38-10.69-39.47,28.6-49.55,57.21-99.09,85.82-148.64,8.95-15.49,23.19-19.3,38.71-10.34,14.46,8.35,28.89,16.76,43.41,25.01,1.96,1.12,4.41,1.99,6.61,1.94,3.27-.07,5.54-2.29,6.25-5.53.81-3.71-.65-6.57-3.96-8.48-16.09-9.28-31.98-18.92-48.36-27.64-5.41-2.88-12.04-4.63-18.17-4.8-17.53-.48-30.13,8.19-38.07,23.59-1.89,3.67-3.81,5.43-7.95,3.36-1.63-.82-3.6-.95-5.42-1.38-14.86-3.47-29.9-5.53-45.18-5.7-5.48-.06-8.87,3.75-8.01,8.8.64,3.79,3.66,5.77,8.6,6.21,10.29.92,20.6,1.84,30.85,3.17,5.45.71,10.79,2.28,16.31,3.5-.38,1-.47,1.37-.65,1.69-15.76,27.31-31.56,54.61-47.24,81.97-1.28,2.24-2.55,2.02-4.56,1.4-9.81-3.04-19.86-4.83-30.16-4.82-4.9,0-8.03,3.44-7.66,8.11.33,4.13,3.38,6.38,8.33,6.9,8.23.86,16.42,2.08,25.26,3.22-1.24,2.28-1.86,3.48-2.53,4.65-5.29,9.18-10.61,18.34-15.88,27.53-12.46,21.74-5.96,45.6,15.79,58.15,24.18,13.95,48.36,27.9,72.5,41.93,1.99,1.16,3.71,2.86,5.39,4.48,8.54,8.19,16.93,16.53,25.59,24.59,1.9,1.77,2.87,3.29,2.85,5.94-.11,21.71.03,43.42-.13,65.13-.03,4.63,1.09,8.27,5.17,10.69ZM67.32,73.67c-21.18.24-41.59,4.1-61.18,12.16-4.61,1.9-6.44,5.76-4.85,9.81,1.63,4.16,5.48,5.72,10.18,4.07,2.93-1.03,5.82-2.21,8.76-3.2,20.87-7.01,42.26-9.01,64.13-6.74,5.34.55,8.77-2.09,9.2-6.47.45-4.58-2.6-7.93-7.97-8.4-6.07-.53-12.17-.83-18.26-1.23ZM64.39,30.68c.08-4.69-3.71-8.23-8.65-7.48-17.31,2.61-34.09,7.21-50.22,14.06-4.14,1.76-5.72,5.65-4.26,9.49,1.53,4.03,5.49,5.95,9.77,4.26,15.23-6.01,30.85-10.52,47.04-13.08,3.94-.62,6.26-3.59,6.32-7.24ZM30.1,136.83c-.88-5.5-5.44-9.25-10.01-7.59-5.47,1.99-10.8,4.47-15.94,7.21-3.48,1.86-4.32,6.07-2.6,9.48,1.69,3.35,5.6,5.08,9.2,3.6,4.94-2.02,9.92-4.09,14.52-6.77,2.06-1.2,3.24-3.91,4.83-5.94ZM290.49,56.81c-.06-4.08-3.39-7.39-7.42-7.37-3.94.02-7.42,3.48-7.46,7.43-.04,4.15,3.5,7.58,7.71,7.47,4.11-.11,7.23-3.38,7.17-7.54Z"/>
  <path class="cls-1" d="M193.85,384c-4.08-2.43-5.2-6.07-5.17-10.69.16-21.71.02-43.42.13-65.13.01-2.65-.96-4.17-2.85-5.94-8.66-8.06-17.05-16.4-25.59-24.59-1.68-1.62-3.4-3.32-5.39-4.48-24.13-14.03-48.32-27.98-72.5-41.93-21.75-12.55-28.25-36.4-15.79-58.15,5.27-9.19,10.59-18.35,15.88-27.53.67-1.17,1.29-2.37,2.53-4.65-8.85-1.15-17.04-2.36-25.26-3.22-4.94-.52-8-2.76-8.33-6.9-.37-4.67,2.76-8.11,7.66-8.11,10.3,0,20.34,1.78,30.16,4.82,2,.62,3.27.84,4.56-1.4,15.68-27.36,31.48-54.65,47.24-81.97.18-.32.27-.69.65-1.69-5.52-1.21-10.86-2.79-16.31-3.5-10.25-1.33-20.55-2.25-30.85-3.17-4.94-.44-7.96-2.42-8.6-6.21-.86-5.04,2.53-8.86,8.01-8.8,15.27.17,30.32,2.23,45.18,5.7,1.82.43,3.79.56,5.42,1.38,4.14,2.08,6.05.31,7.95-3.36C160.53,9.09,173.12.43,190.65.91c6.13.17,12.76,1.91,18.17,4.8,16.38,8.73,32.27,18.37,48.36,27.64,3.31,1.91,4.77,4.77,3.96,8.48-.71,3.24-2.98,5.46-6.25,5.53-2.2.05-4.65-.83-6.61-1.94-14.52-8.24-28.95-16.66-43.41-25.01-15.52-8.96-29.76-5.15-38.71,10.34-28.61,49.54-57.22,99.09-85.82,148.64-9.29,16.09-5.48,30.13,10.69,39.47,15.11,8.73,30.22,17.44,45.34,26.16.73.42,1.48.8,2.97,1.6-.74-1.64-1.2-2.57-1.57-3.53-3.88-10.1-8.22-20.06-11.49-30.36-4.32-13.61,1.82-26.74,14.29-32.43,12.31-5.63,26.11-1.32,33.93,10.61,2.38,3.63,4.71,7.3,7.92,10.89,0-1.23,0-2.46,0-3.69,0-28.2-.04-56.4.02-84.6.03-12.23,7.08-21.71,18.42-23.97,4.49-.9,9.3-.15,14.52-.15,3.5-11.45,11.45-19,24.94-18.26,11.91.65,18.83,8,22.07,19.26,7.86-2.58,15.39-2.25,22.24,2.46,6.56,4.5,10.24,10.83,10.4,18.89.14,6.82.03,13.65.03,20.47,3.79-.36,7.14-1.14,10.41-.9,13,.95,22.23,10.96,22.32,24.1.11,15.72.03,31.44.03,47.17,0,1.35,0,2.7,0,5.04,1.11-1.59,1.76-2.38,2.26-3.25,11.54-19.97,23.09-39.92,34.57-59.92,8.43-14.69,4.53-29.08-10.19-37.64-14.76-8.58-29.62-16.99-44.28-25.75-2.23-1.33-4.5-3.93-5.03-6.33-.44-1.99,1.14-5.02,2.74-6.74,2.23-2.4,5.48-2.15,8.32-.55,6.3,3.55,12.53,7.21,18.79,10.82,9.07,5.24,18.09,10.53,27.2,15.69,11.67,6.61,18.9,16.34,21.22,29.63.08.47.38.9.58,1.34v10.48c-2.09,10.62-8.06,19.42-13.33,28.55-14.69,25.46-29.4,50.91-44.06,76.39-.98,1.7-1.84,3.56-2.29,5.46-5.04,21.04-14.96,39.47-29.33,55.6-1.25,1.4-2.13,3.67-2.14,5.54-.15,22.32-.19,44.64-.02,66.96.03,4.6-1.2,8-5.4,10.07h-4.49c-4.13-2.38-5.26-6-5.23-10.65.16-23.08.17-46.17,0-69.25-.03-4.6,1.45-7.97,4.59-11.29,14.87-15.68,24.6-34.2,28.25-55.5,1.66-9.65,2-19.58,2.19-29.4.33-17.21.11-34.44.08-51.66,0-5.06-2.21-8.37-6.18-9.61-6.11-1.9-11.42,2.35-11.51,9.43-.12,8.86.03,17.72-.08,26.58-.06,4.51-2.97,7.45-7.09,7.58-4.16.13-7.23-2.61-7.74-7.01-.14-1.23-.08-2.49-.08-3.74,0-20.96,0-41.93,0-62.89,0-1.12.02-2.25-.01-3.37-.17-5.78-3.67-9.46-8.9-9.39-5.07.07-8.52,3.71-8.58,9.31-.08,6.99-.02,13.98-.03,20.96,0,15.72.02,31.45-.01,47.17,0,4.98-2.12,8.04-5.87,8.81-5.22,1.06-9.06-2.45-9.07-8.48-.03-28.08-.01-56.15-.02-84.23,0-7.34-3.19-11.42-8.89-11.41-5.7,0-8.85,4.07-8.86,11.44,0,1,0,2,0,2.99,0,26.2,0,52.41,0,78.61,0,1.12.02,2.25-.01,3.37-.16,4.73-2.97,7.77-7.24,7.85-4.42.09-7.55-2.99-7.68-7.86-.14-5.24-.04-10.48-.04-15.72,0-17.97.03-35.94-.04-53.91-.02-4.83-3.13-8.32-7.47-8.84-4.4-.53-8.54,1.93-9.58,6.01-.46,1.78-.42,3.71-.42,5.57-.02,36.69-.01,73.37-.03,110.06,0,1.61-.04,3.26-.35,4.83-.59,2.96-2.49,4.81-5.43,5.53-2.95.73-5.43-.15-7.4-2.39-.82-.93-1.46-2.02-2.13-3.07-6.8-10.6-13.58-21.21-20.39-31.8-2.85-4.44-6.98-6.38-12.16-5.52-4.73.78-8.12,3.69-9.06,8.33-.57,2.78-.21,6,.61,8.76,10.08,34.13,29.36,61.93,57.94,83.17,3.31,2.46,4.82,5.28,4.8,9.45-.12,23.83-.14,47.67.01,71.5.03,4.52-1.38,7.71-5.46,9.66h-4.49Z"/>
  <path class="cls-2" d="M198.35,384c4.07-1.95,5.49-5.14,5.46-9.66-.15-23.83-.13-47.67-.01-71.5.02-4.17-1.48-6.99-4.8-9.45-28.58-21.24-47.86-49.04-57.94-83.17-.82-2.76-1.18-5.98-.61-8.76.95-4.64,4.33-7.54,9.06-8.33,5.18-.86,9.31,1.08,12.16,5.52,6.81,10.59,13.59,21.2,20.39,31.8.67,1.05,1.31,2.14,2.13,3.07,1.97,2.24,4.45,3.11,7.4,2.39,2.94-.72,4.84-2.57,5.43-5.53.32-1.57.35-3.22.35-4.83.02-36.69,0-73.37.03-110.06,0-1.86-.03-3.79.42-5.57,1.04-4.07,5.18-6.54,9.58-6.01,4.34.53,7.45,4.02,7.47,8.84.07,17.97.04,35.94.04,53.91,0,5.24-.1,10.48.04,15.72.13,4.87,3.26,7.94,7.68,7.86,4.27-.08,7.08-3.12,7.24-7.85.04-1.12.01-2.25.01-3.37,0-26.2,0-52.41,0-78.61,0-1,0-2,0-2.99.01-7.37,3.16-11.43,8.86-11.44,5.7,0,8.89,4.07,8.89,11.41,0,28.08-.01,56.15.02,84.23,0,6.02,3.85,9.54,9.07,8.48,3.76-.76,5.86-3.83,5.87-8.81.03-15.72.01-31.45.01-47.17,0-6.99-.06-13.98.03-20.96.06-5.6,3.51-9.24,8.58-9.31,5.23-.07,8.73,3.61,8.9,9.39.03,1.12.01,2.25.01,3.37,0,20.96,0,41.93,0,62.89,0,1.25-.06,2.51.08,3.74.51,4.39,3.58,7.14,7.74,7.01,4.12-.13,7.03-3.07,7.09-7.58.12-8.86-.04-17.72.08-26.58.09-7.07,5.41-11.33,11.51-9.43,3.97,1.23,6.17,4.55,6.18,9.61.03,17.22.25,34.44-.08,51.66-.19,9.82-.53,19.75-2.19,29.4-3.65,21.3-13.38,39.82-28.25,55.5-3.14,3.31-4.63,6.68-4.59,11.29.17,23.08.17,46.17,0,69.25-.03,4.65,1.1,8.27,5.23,10.65h-84.59Z"/>
  <path class="cls-2" d="M287.43,384c4.2-2.08,5.44-5.48,5.4-10.07-.17-22.32-.13-44.64.02-66.96.01-1.87.9-4.14,2.14-5.54,14.37-16.13,24.29-34.56,29.33-55.6.45-1.9,1.31-3.76,2.29-5.46,14.66-25.48,29.37-50.93,44.06-76.39,5.27-9.13,11.24-17.94,13.33-28.55v248.58h-96.57Z"/>
  <path class="cls-1" d="M67.32,73.67c6.09.4,12.18.7,18.26,1.23,5.37.47,8.42,3.82,7.97,8.4-.43,4.37-3.86,7.02-9.2,6.47-21.86-2.27-43.25-.27-64.13,6.74-2.95.99-5.83,2.17-8.76,3.2-4.71,1.65-8.55.09-10.18-4.07-1.58-4.05.24-7.91,4.85-9.81,19.59-8.06,40-11.92,61.18-12.16Z"/>
  <path class="cls-1" d="M64.39,30.68c-.06,3.65-2.38,6.62-6.32,7.24-16.19,2.56-31.81,7.07-47.04,13.08-4.28,1.69-8.23-.23-9.77-4.26-1.46-3.83.13-7.73,4.26-9.49,16.13-6.84,32.91-11.44,50.22-14.06,4.94-.75,8.73,2.79,8.65,7.48Z"/>
  <path class="cls-1" d="M30.1,136.83c-1.58,2.03-2.76,4.74-4.83,5.94-4.6,2.67-9.58,4.74-14.52,6.77-3.6,1.47-7.52-.25-9.2-3.6-1.72-3.41-.88-7.62,2.6-9.48,5.14-2.74,10.47-5.22,15.94-7.21,4.57-1.66,9.13,2.09,10.01,7.59Z"/>
  <path class="cls-1" d="M290.49,56.81c.06,4.15-3.06,7.43-7.17,7.54-4.21.11-7.75-3.32-7.71-7.47.04-3.95,3.52-7.41,7.46-7.43,4.03-.02,7.36,3.28,7.42,7.37Z"/>
</svg>