<?xml version="1.0" encoding="UTF-8"?>
<svg id="Layer_1" data-name="Layer 1" xmlns="http://www.w3.org/2000/svg" viewBox="0 0 409.6 409.6">
  <defs>
    <style>
      .cls-1, .cls-2 {
        stroke-width: 0px;
      }

      .cls-2 {
        fill: #fff;
      }
    </style>
  </defs>
  <path class="cls-2" d="M71.08,409.6H0c0-136.51,0-273.02,0-409.6h409.6v409.6h-70.16c5.47-1.93,11.37-3.09,16.32-5.92,16.34-9.31,23.83-23.81,23.81-42.59-.08-96.87-.04-193.74-.04-290.6,0-8.12.14-16.24-.06-24.35-.64-25.66-20.39-45.32-46.07-45.36-85.44-.13-170.88-.14-256.32.13-6.45.02-13.41,1.52-19.23,4.25-17.94,8.41-26.85,23.14-26.86,43-.03,104.72-.02,209.44-.01,314.15,0,1.06.03,2.13.08,3.19.64,13.97,6.61,25.23,17.33,34.1,6.62,5.48,14.52,8.02,22.68,10Z"/>
  <path class="cls-1" d="M71.08,409.6c-8.16-1.97-16.05-4.51-22.68-10-10.72-8.87-16.69-20.13-17.33-34.1-.05-1.06-.08-2.13-.08-3.19,0-104.72-.02-209.44.01-314.15,0-19.86,8.92-34.58,26.86-43,5.82-2.73,12.78-4.23,19.23-4.25,85.44-.27,170.88-.26,256.32-.13,25.68.04,45.42,19.71,46.07,45.36.2,8.11.06,16.23.06,24.35,0,96.87-.04,193.74.04,290.6.02,18.78-7.47,33.28-23.81,42.59-4.96,2.82-10.86,3.99-16.32,5.92H71.08ZM367.27,357.64V109.45H43.27v248.19c2.01,0,3.71,0,5.42,0,80.4,0,160.8,0,241.2,0,1.46,0,2.94-.06,4.39.07,3.4.31,5.47,2.29,5.62,5.63.15,3.36-1.83,5.48-5.14,6.08-1.55.28-3.18.19-4.77.19-80.27,0-160.53,0-240.8,0-1.71,0-3.43,0-5.37,0,.18,1.25.22,2.17.44,3.04,3.81,14.82,17.44,24.93,34.02,24.94,84.66.04,169.32.1,253.98-.16,5.77-.02,11.97-1.62,17.2-4.1,9.6-4.56,15.29-12.72,17.43-23.73-1.89,0-3.34,0-4.79,0-13.71,0-27.42,0-41.13-.02-1.45,0-2.97,0-4.35-.37-3.09-.85-4.67-3-4.38-6.24.28-3.06,2.16-4.77,5.12-5.23,1.3-.2,2.66-.12,3.99-.12,15.16,0,30.33,0,45.92,0ZM367.55,97c0-16.6.12-32.83-.03-49.04-.19-20.87-14.7-35.22-35.65-35.23-84.36-.05-168.72-.04-253.08,0-21.16,0-35.63,14.38-35.8,35.49-.12,15.03-.03,30.07-.01,45.1,0,1.16.14,2.32.22,3.69h324.35Z"/>
  <path class="cls-2" d="M367.27,357.64c-15.6,0-30.76,0-45.92,0-1.33,0-2.68-.08-3.99.12-2.96.46-4.84,2.17-5.12,5.23-.29,3.24,1.29,5.39,4.38,6.24,1.38.38,2.89.37,4.35.37,13.71.03,27.42.01,41.13.02,1.45,0,2.89,0,4.79,0-2.14,11-7.83,19.16-17.43,23.73-5.23,2.48-11.43,4.08-17.2,4.1-84.66.25-169.32.2-253.98.16-16.58,0-30.21-10.12-34.02-24.94-.22-.87-.27-1.79-.44-3.04,1.94,0,3.66,0,5.37,0,80.27,0,160.53,0,240.8,0,1.59,0,3.22.09,4.77-.19,3.31-.6,5.29-2.72,5.14-6.08-.15-3.34-2.21-5.32-5.62-5.63-1.45-.13-2.93-.07-4.39-.07-80.4,0-160.8,0-241.2,0-1.71,0-3.42,0-5.42,0V109.45h324v248.19ZM315.37,231.01c-.32-3.12-.63-8.58-1.47-13.96-4.98-31.98-21-57.28-47.84-75.06-39.3-26.03-87.59-24.64-125.75,2.69-1.07.77-2.16,1.59-3.03,2.57-2.03,2.3-2.11,4.91-.31,7.3,1.79,2.38,4.36,3.17,7.09,1.8,2.12-1.06,4.03-2.56,6.01-3.91,14.25-9.75,30.01-15.48,47.2-16.66,29.44-2.03,55.19,7.01,76.36,27.63,20.49,19.97,30.46,44.65,29.54,73.25-.92,28.6-12.54,52.52-34.21,71.2-21.24,18.32-46.24,25.94-74.01,23.12-25.68-2.61-47.33-13.98-64.04-33.73-20.29-23.98-27.53-51.72-21.84-82.66,2.89-15.72,9.73-29.71,19.49-42.33,2.67-3.46,2.28-7.1-.53-9.19-2.81-2.1-6.41-1.35-9,2.04-21.52,28.27-29.1,59.89-20.56,94.42,14.29,57.8,69.62,92.86,128.08,81.99,50.7-9.42,89.1-56.19,88.81-110.51ZM205.42,151.32c-45.12-.28-82.2,36.66-82.42,82.14-.23,45.01,36.23,81.64,81.88,82.25,44.76.6,82.33-36.46,82.63-81.51.3-45.52-36.41-82.59-82.09-82.87Z"/>
  <path class="cls-2" d="M367.55,97H43.2c-.09-1.37-.22-2.53-.22-3.69-.01-15.03-.1-30.07.01-45.1.16-21.11,14.63-35.48,35.8-35.49,84.36-.04,168.72-.04,253.08,0,20.95.01,35.45,14.36,35.65,35.23.15,16.22.03,32.44.03,49.04ZM282.17,29.53c-10.91,0-21.81-.02-32.72,0-10.4.03-15.66,5.28-15.74,15.73-.05,6.25-.03,12.5,0,18.75.04,11.23,5.12,16.3,16.38,16.32,13.3.03,26.6,0,39.9,0,8.11,0,16.23.06,24.34-.02,10.18-.09,15.5-5.45,15.53-15.55.03-6.65.03-13.3,0-19.95-.05-9.81-5.5-15.25-15.37-15.3-10.77-.05-21.55-.01-32.32-.01ZM121.54,54.98c.02-13.96-11.42-25.46-25.3-25.42-13.72.04-25.1,11.38-25.22,25.12-.12,13.94,11.15,25.41,25.13,25.58,13.82.17,25.37-11.33,25.39-25.28ZM139.66,55.01c.04,13.95,11.64,25.46,25.42,25.25,13.86-.22,25.01-11.43,25.07-25.21.06-13.93-11.36-25.47-25.23-25.49-13.87-.02-25.3,11.5-25.26,25.45Z"/>
  <path class="cls-1" d="M315.37,231.01c.28,54.33-38.11,101.09-88.81,110.51-58.47,10.87-113.79-24.19-128.08-81.99-8.54-34.53-.96-66.14,20.56-94.42,2.58-3.39,6.19-4.14,9-2.04,2.81,2.09,3.21,5.73.53,9.19-9.76,12.63-16.59,26.61-19.49,42.33-5.69,30.94,1.55,58.68,21.84,82.66,16.71,19.75,38.35,31.12,64.04,33.73,27.77,2.82,52.77-4.8,74.01-23.12,21.67-18.69,33.29-42.6,34.21-71.2.92-28.59-9.05-53.28-29.54-73.25-21.17-20.62-46.92-29.66-76.36-27.63-17.19,1.18-32.95,6.91-47.2,16.66-1.97,1.35-3.88,2.84-6.01,3.91-2.73,1.37-5.3.58-7.09-1.8-1.8-2.4-1.72-5,.31-7.3.87-.98,1.95-1.8,3.03-2.57,38.16-27.34,86.45-28.73,125.75-2.69,26.84,17.78,42.86,43.08,47.84,75.06.84,5.38,1.15,10.84,1.47,13.96Z"/>
  <path class="cls-1" d="M205.42,151.32c45.67.28,82.39,37.35,82.09,82.87-.3,45.05-37.87,82.11-82.63,81.51-45.65-.61-82.11-37.24-81.88-82.25.23-45.48,37.3-82.42,82.42-82.14ZM275.69,233.83c-1.36-27.9-13.1-49.07-37.04-61.89-25.39-13.59-50.75-11.68-74.53,4.79-20.16,13.96-30.25,39.12-28.55,56.67,11.54-5.77,22.5-4.53,33.31,2.15,6.17,3.81,12.77,3.28,18.92-.49,11.68-7.15,23.21-7.16,34.94-.03,6.54,3.98,13.28,3.9,20.05.06,3.09-1.76,6.37-3.37,9.76-4.37,7.74-2.27,15.23-.86,23.16,3.1ZM205.44,303.73c1.17-.06,2.63-.14,4.1-.21,30.11-1.4,56.84-23.67,63.92-53.05.63-2.61-.03-3.81-2.08-5.14-7.05-4.58-14.2-5.01-21.4-.64-11.58,7.04-23.02,7-34.6-.02-6.58-3.99-13.48-4.09-20.05-.09-11.72,7.12-23.24,7.14-34.96.02-7.2-4.37-14.38-3.79-21.39.83-1.92,1.27-2.56,2.38-1.98,4.83,7.43,31.03,35.77,53.34,68.44,53.47Z"/>
  <path class="cls-1" d="M282.17,29.53c10.77,0,21.55-.04,32.32.01,9.87.04,15.32,5.49,15.37,15.3.03,6.65.03,13.3,0,19.95-.04,10.1-5.35,15.45-15.53,15.55-8.11.07-16.23.02-24.34.02-13.3,0-26.6.02-39.9,0-11.26-.02-16.34-5.09-16.38-16.32-.02-6.25-.04-12.5,0-18.75.08-10.46,5.34-15.71,15.74-15.73,10.91-.03,21.81,0,32.72,0ZM281.82,41.51c-10.77,0-21.55.06-32.32-.04-2.7-.02-3.88.87-3.83,3.67.11,6.52.12,13.03,0,19.55-.05,2.81,1.13,3.71,3.8,3.7,21.55-.05,43.1-.06,64.65,0,3,0,3.91-1.21,3.83-4.08-.16-6.25-.19-12.5,0-18.75.1-3.21-1.15-4.14-4.21-4.11-10.64.13-21.28.05-31.92.05Z"/>
  <path class="cls-1" d="M121.54,54.98c-.02,13.95-11.57,25.45-25.39,25.28-13.98-.17-25.25-11.64-25.13-25.58.12-13.74,11.51-25.08,25.22-25.12,13.87-.04,25.32,11.45,25.3,25.42ZM109.56,55.09c.07-7.48-5.91-13.57-13.3-13.55-7.17.02-13.19,6.02-13.26,13.22-.07,7.43,5.97,13.56,13.32,13.53,7.25-.03,13.17-5.93,13.24-13.2Z"/>
  <path class="cls-1" d="M139.66,55.01c-.04-13.95,11.39-25.47,25.26-25.45,13.87.02,25.29,11.55,25.23,25.49-.06,13.78-11.21,24.99-25.07,25.21-13.78.21-25.37-11.3-25.42-25.25ZM178.17,54.89c-.01-7.27-5.87-13.24-13.1-13.35-7.37-.11-13.44,5.95-13.43,13.41.01,7.3,5.82,13.2,13.1,13.32,7.36.12,13.45-5.94,13.44-13.39Z"/>
  <path class="cls-2" d="M275.69,233.83c-7.92-3.96-15.42-5.37-23.16-3.1-3.39,1-6.67,2.61-9.76,4.37-6.76,3.84-13.5,3.92-20.05-.06-11.73-7.13-23.26-7.12-34.94.03-6.15,3.77-12.75,4.3-18.92.49-10.81-6.68-21.76-7.93-33.31-2.15-1.7-17.55,8.39-42.71,28.55-56.67,23.79-16.47,49.14-18.38,74.53-4.79,23.94,12.82,35.68,33.99,37.04,61.89Z"/>
  <path class="cls-2" d="M205.44,303.73c-32.67-.13-61.02-22.44-68.44-53.47-.59-2.45.06-3.57,1.98-4.83,7.01-4.62,14.19-5.21,21.39-.83,11.72,7.12,23.24,7.1,34.96-.02,6.58-4,13.47-3.9,20.05.09,11.58,7.02,23.02,7.05,34.6.02,7.2-4.37,14.35-3.94,21.4.64,2.05,1.33,2.71,2.53,2.08,5.14-7.09,29.38-33.81,51.66-63.92,53.05-1.46.07-2.92.15-4.1.21Z"/>
  <path class="cls-2" d="M281.82,41.51c10.64,0,21.28.08,31.92-.05,3.06-.04,4.31.9,4.21,4.11-.19,6.24-.17,12.5,0,18.75.07,2.87-.83,4.09-3.83,4.08-21.55-.07-43.1-.06-64.65,0-2.67,0-3.86-.89-3.8-3.7.12-6.51.11-13.03,0-19.55-.05-2.8,1.14-3.69,3.83-3.67,10.77.1,21.55.04,32.32.04Z"/>
  <path class="cls-2" d="M109.56,55.09c-.07,7.27-5.99,13.17-13.24,13.2-7.35.03-13.39-6.11-13.32-13.53.07-7.2,6.08-13.2,13.26-13.22,7.39-.02,13.37,6.07,13.3,13.55Z"/>
  <path class="cls-2" d="M178.17,54.89c.01,7.45-6.08,13.51-13.44,13.39-7.28-.12-13.08-6.02-13.1-13.32-.01-7.46,6.06-13.52,13.43-13.41,7.23.11,13.09,6.08,13.1,13.35Z"/>
</svg>