<?xml version="1.0" encoding="UTF-8"?>
<svg id="Layer_1" data-name="Layer 1" xmlns="http://www.w3.org/2000/svg" viewBox="0 0 409.6 409.6">
  <defs>
    <style>
      .cls-1, .cls-2 {
        stroke-width: 0px;
      }

      .cls-2 {
        fill: #fff;
      }
    </style>
  </defs>
  <path class="cls-2" d="M202.79,409.6H0V0h409.6v212.34c-1.48-1.65-2.9-3.36-4.46-4.93-12.97-13.01-25.92-26.03-38.99-38.93-2.04-2.01-4.53-3.73-7.1-4.99-17.88-8.81-35.81-17.52-53.8-26.08-2.69-1.28-3.56-2.74-3.54-5.69.13-23.96.04-47.92.1-71.87,0-3.87-.85-7.15-4.43-9.15-8.47-4.73-16.96-9.43-25.46-14.1-3.2-1.76-6.41-1.74-9.34.57-4.45,3.52-3.89,9.78,1.31,13.07,4.18,2.65,8.6,4.93,13.14,7.51-.84.57-1.26.9-1.72,1.15-22.55,12.51-45.08,25.05-67.72,37.4-1.36.74-3.9.56-5.33-.23-22.16-12.11-44.23-24.39-66.32-36.64-.83-.46-1.58-1.06-2.67-1.79,23.53-13.03,46.65-25.87,69.84-38.57,1.11-.61,3.1-.46,4.3.12,4.18,2.03,8.16,4.46,12.27,6.64,5.15,2.72,9.83,1.65,12.07-2.64,2.16-4.15.54-8.49-4.37-11.3-5.42-3.1-11.02-5.9-16.37-9.13-4.13-2.5-7.76-2.23-11.92.09-28.08,15.69-56.23,31.26-84.42,46.76-4.34,2.39-6.24,5.55-6.21,10.56.16,23.82,0,47.65.15,71.47.02,3.18-1.02,4.6-3.82,5.93-18,8.55-35.92,17.28-53.82,26.06-2.23,1.09-4.42,2.52-6.18,4.26-13.53,13.38-26.97,26.86-40.4,40.34-5.69,5.72-4.77,11.23,2.49,14.92,11.14,5.66,22.26,11.35,33.49,16.81,2.65,1.29,3.59,2.74,3.57,5.71-.13,26.35.01,52.71-.14,79.06-.03,5.34,1.92,8.65,6.78,10.94,15.03,7.07,29.92,14.43,44.88,21.66,1.07.52,2.17,1.02,3.31,1.35,3.45,1.01,7.15-.52,8.9-3.59,1.74-3.06,1.31-7.22-1.29-9.53-1.36-1.21-3.04-2.14-4.7-2.95-12.9-6.29-25.79-12.59-38.78-18.71-2.43-1.14-3.14-2.52-3.13-5.13.11-21.69.06-43.39.07-65.09,0-1.1.16-2.21.26-3.61,1.6.76,2.79,1.31,3.97,1.9,30.02,15.13,60.04,30.27,90.07,45.39,6.12,3.08,8.51,2.69,13.43-2.22,8.76-8.74,17.5-17.51,26.26-26.25.89-.89,1.86-1.69,3.18-2.89v122.62c-1.57-.7-2.88-1.25-4.16-1.87-11.37-5.48-22.73-10.99-34.11-16.45-1.31-.63-2.67-1.2-4.07-1.56-3.75-.94-7.34.8-8.94,4.2-1.46,3.11-.61,7.16,2.19,9.36,1.34,1.05,2.91,1.84,4.46,2.6,16.79,8.25,33.6,16.47,50.4,24.7ZM366.48,44.19s-.01,0-.02,0c0-8.51.13-17.02-.05-25.52-.1-4.85-3.74-8.3-8.04-8.21-4.2.1-7.73,3.41-7.77,8.07-.14,17.01-.15,34.03,0,51.04.04,4.75,3.48,7.85,7.83,7.89,4.78.04,7.96-3.39,8.03-8.95.09-8.11.02-16.22.02-24.32ZM59.83,61.93s.01,0,.02,0c0-3.06,0-6.12,0-9.18,0-.27,0-.53-.02-.8-.4-4.7-3.58-7.98-7.81-8.06-4.38-.09-7.91,3.29-8.06,8.18-.19,6.51-.19,13.04,0,19.56.14,4.68,3.55,7.98,7.77,8.07,4.34.1,7.81-3.32,8.07-8.19.17-3.18.03-6.38.03-9.58ZM59.83,115c0-2.66.14-5.32-.03-7.96-.3-4.66-3.59-7.96-7.79-8.04-4.19-.08-7.81,3.17-8.02,7.77-.25,5.56-.25,11.16-.01,16.72.2,4.67,3.69,7.85,7.96,7.81,4.27-.04,7.53-3.22,7.85-7.94.19-2.78.03-5.57.04-8.36ZM366.42,103.07c0-4.15-3.77-7.94-7.91-7.95-4.13,0-7.92,3.79-7.93,7.94,0,4.24,3.64,7.87,7.92,7.87,4.29,0,7.92-3.6,7.93-7.86ZM253.92,31.55c.1-4.32-3.37-7.96-7.68-8.05-4.23-.09-7.99,3.46-8.12,7.69-.13,4.18,3.48,7.9,7.75,7.99,4.39.09,7.95-3.28,8.05-7.63ZM126.04,371.21c4.14.04,7.95-3.7,7.99-7.85.04-4.12-3.73-7.95-7.87-7.99-4.15-.04-7.93,3.69-7.97,7.86-.04,4.16,3.67,7.93,7.85,7.97Z"/>
  <path class="cls-1" d="M202.79,409.6c-16.8-8.23-33.61-16.45-50.4-24.7-1.54-.76-3.12-1.55-4.46-2.6-2.8-2.2-3.65-6.25-2.19-9.36,1.6-3.39,5.19-5.13,8.94-4.2,1.4.35,2.76.93,4.07,1.56,11.38,5.47,22.74,10.97,34.11,16.45,1.28.62,2.59,1.16,4.16,1.87v-122.62c-1.32,1.2-2.29,2.01-3.18,2.89-8.76,8.74-17.5,17.51-26.26,26.25-4.92,4.91-7.3,5.3-13.43,2.22-30.03-15.13-60.05-30.26-90.07-45.39-1.17-.59-2.37-1.13-3.97-1.9-.11,1.4-.26,2.51-.26,3.61-.01,21.7.04,43.39-.07,65.09-.01,2.62.7,3.99,3.13,5.13,12.98,6.12,25.88,12.42,38.78,18.71,1.66.81,3.34,1.73,4.7,2.95,2.59,2.31,3.03,6.47,1.29,9.53-1.75,3.07-5.44,4.6-8.9,3.59-1.14-.33-2.24-.83-3.31-1.35-14.95-7.23-29.85-14.59-44.88-21.66-4.86-2.29-6.81-5.6-6.78-10.94.15-26.35.02-52.71.14-79.06.01-2.97-.93-4.43-3.57-5.71-11.23-5.46-22.35-11.15-33.49-16.81-7.26-3.69-8.18-9.2-2.49-14.92,13.43-13.48,26.87-26.96,40.4-40.34,1.75-1.73,3.95-3.16,6.18-4.26,17.89-8.78,35.81-17.51,53.82-26.06,2.8-1.33,3.84-2.75,3.82-5.93-.16-23.82,0-47.65-.15-71.47-.03-5.01,1.86-8.17,6.21-10.56,28.19-15.49,56.34-31.06,84.42-46.76,4.16-2.33,7.79-2.59,11.92-.09,5.34,3.23,10.94,6.03,16.37,9.13,4.92,2.81,6.53,7.16,4.37,11.3-2.23,4.29-6.91,5.36-12.07,2.64-4.11-2.17-8.09-4.61-12.27-6.64-1.2-.58-3.19-.73-4.3-.12-23.19,12.7-46.31,25.54-69.84,38.57,1.08.73,1.83,1.33,2.67,1.79,22.08,12.25,44.15,24.53,66.32,36.64,1.43.78,3.97.97,5.33.23,22.64-12.35,45.17-24.89,67.72-37.4.46-.26.88-.59,1.72-1.15-4.55-2.58-8.96-4.86-13.14-7.51-5.2-3.3-5.76-9.56-1.31-13.07,2.92-2.31,6.14-2.33,9.34-.57,8.5,4.67,16.99,9.38,25.46,14.1,3.58,2,4.44,5.28,4.43,9.15-.06,23.96.03,47.92-.1,71.87-.02,2.95.85,4.41,3.54,5.69,18,8.56,35.92,17.28,53.8,26.08,2.57,1.27,5.06,2.98,7.1,4.99,13.08,12.89,26.03,25.92,38.99,38.93,1.56,1.57,2.98,3.28,4.46,4.93v4.79c-2.26,2.12-4.21,4.84-6.85,6.25-10.54,5.63-21.25,10.97-32.01,16.17-3.12,1.51-4.39,3.16-4.37,6.85.21,25.81-.04,51.63.22,77.44.06,6.21-2.26,9.7-7.79,12.35-37.5,17.96-74.89,36.14-112.3,54.29-13,6.31-25.94,12.74-38.91,19.12h-4.79ZM213.35,388.51c.86-.3,1.49-.46,2.06-.74,44.25-21.44,88.48-42.9,132.76-64.26,2.18-1.05,2.36-2.41,2.36-4.37-.03-21.96-.02-43.92-.03-65.89,0-.96-.17-1.93-.29-3.18-1.59.76-2.78,1.31-3.95,1.9-29.91,15.07-59.81,30.14-89.72,45.21-6.6,3.33-8.74,2.97-14.06-2.35-8.76-8.75-17.51-17.5-26.27-26.24-.79-.79-1.67-1.48-2.85-2.52v122.44ZM22.31,212.73c.83.56,1.24.91,1.71,1.14,44.01,22.19,88.04,44.35,132.02,66.61,2.19,1.11,3.26.46,4.73-1.02,9.64-9.74,19.36-19.4,29.04-29.1.51-.51.89-1.14,1.49-1.92-6.02-2.92-11.75-5.69-17.48-8.47-38.97-18.89-77.95-37.77-116.92-56.66-1.75-.85-3.2-2.01-5.23.06-9.59,9.78-19.36,19.39-29.35,29.35ZM218.76,248.6c10.41,10.4,20.45,20.28,30.28,30.37,2.17,2.23,3.72,2.33,6.41.97,42.9-21.75,85.86-43.38,128.8-65.04,1.17-.59,2.33-1.22,3.87-2.04-9.24-9.23-18.4-18.09-27.17-27.31-2.94-3.08-5.09-3.57-9.02-1.64-32.07,15.76-64.27,31.26-96.43,46.84-12.07,5.85-24.13,11.71-36.74,17.83ZM301.81,153.43c.49,6.02-2.7,8.86-7.14,11.3-27.61,15.16-55.17,30.4-82.63,45.84-4.84,2.72-8.84,2.79-13.71.05-27.46-15.44-55.02-30.68-82.63-45.84-4.41-2.42-7.74-5.17-7.15-11.34-12.94,6.26-25.32,12.26-38.1,18.44,1.29.74,2.15,1.3,3.07,1.74,42.92,20.8,85.86,41.57,128.74,62.44,2.36,1.15,4.11.8,6.29-.26,42.54-20.66,85.12-41.26,127.69-61.87,1.11-.54,2.17-1.19,3.7-2.03-12.9-6.25-25.29-12.24-38.14-18.46ZM124.71,71.65c-.1.9-.19,1.38-.19,1.86,0,25.14-.05,50.28.11,75.42,0,1.36,1.53,3.24,2.86,3.98,22.01,12.35,44.11,24.55,66.19,36.78,1,.55,2.07.96,3.24,1.49.12-.75.24-1.14.24-1.52.01-25.14.06-50.28-.1-75.42,0-1.39-1.44-3.33-2.75-4.07-22.13-12.42-44.34-24.68-66.53-36.98-.89-.49-1.82-.92-3.06-1.55ZM213.32,191.24c1.01-.46,1.72-.74,2.39-1.11,22.54-12.49,45.06-25.02,67.65-37.41,2.19-1.2,2.47-2.66,2.47-4.77-.04-24.34-.03-48.68-.04-73.02,0-.98-.12-1.96-.2-3.23-.89.39-1.37.55-1.82.8-22.78,12.61-45.53,25.26-68.37,37.77-2.27,1.24-2.29,2.87-2.29,4.92.03,24.07.01,48.15.02,72.22,0,1.15.1,2.3.17,3.84Z"/>
  <path class="cls-2" d="M207.58,409.6c12.97-6.38,25.91-12.81,38.91-19.12,37.41-18.15,74.8-36.33,112.3-54.29,5.53-2.65,7.85-6.14,7.79-12.35-.25-25.81,0-51.63-.22-77.44-.03-3.69,1.24-5.35,4.37-6.85,10.77-5.2,21.47-10.53,32.01-16.17,2.64-1.41,4.59-4.13,6.85-6.25v192.47h-202.02Z"/>
  <path class="cls-1" d="M366.48,44.19c0,8.11.07,16.22-.02,24.32-.06,5.56-3.25,8.99-8.03,8.95-4.35-.04-7.78-3.14-7.83-7.89-.15-17.01-.15-34.03,0-51.04.04-4.66,3.57-7.97,7.77-8.07,4.3-.1,7.94,3.36,8.04,8.21.18,8.5.05,17.01.05,25.52,0,0,.01,0,.02,0Z"/>
  <path class="cls-1" d="M59.83,61.93c0,3.19.14,6.39-.03,9.58-.26,4.87-3.73,8.29-8.07,8.19-4.22-.1-7.63-3.39-7.77-8.07-.2-6.51-.2-13.04,0-19.56.14-4.9,3.68-8.27,8.06-8.18,4.23.08,7.41,3.36,7.81,8.06.02.26.02.53.02.8,0,3.06,0,6.12,0,9.18,0,0-.01,0-.02,0Z"/>
  <path class="cls-1" d="M59.83,115c0,2.79.15,5.59-.04,8.36-.32,4.72-3.58,7.9-7.85,7.94-4.26.04-7.75-3.14-7.96-7.81-.24-5.57-.24-11.16.01-16.72.21-4.61,3.82-7.85,8.02-7.77,4.2.08,7.49,3.38,7.79,8.04.17,2.64.03,5.31.03,7.96Z"/>
  <path class="cls-1" d="M366.42,103.07c0,4.25-3.64,7.86-7.93,7.86-4.28,0-7.92-3.62-7.92-7.87,0-4.15,3.8-7.95,7.93-7.94,4.14,0,7.92,3.8,7.91,7.95Z"/>
  <path class="cls-1" d="M253.92,31.55c-.1,4.35-3.66,7.72-8.05,7.63-4.27-.09-7.88-3.81-7.75-7.99.13-4.22,3.89-7.78,8.12-7.69,4.31.09,7.78,3.73,7.68,8.05Z"/>
  <path class="cls-1" d="M126.04,371.21c-4.18-.04-7.89-3.81-7.85-7.97.04-4.18,3.82-7.9,7.97-7.86,4.14.04,7.91,3.87,7.87,7.99-.04,4.15-3.85,7.89-7.99,7.85Z"/>
  <path class="cls-2" d="M213.35,388.51v-122.44c1.18,1.04,2.06,1.74,2.85,2.52,8.76,8.74,17.51,17.5,26.27,26.24,5.32,5.31,7.45,5.67,14.06,2.35,29.91-15.07,59.81-30.14,89.72-45.21,1.17-.59,2.37-1.14,3.95-1.9.12,1.25.29,2.22.29,3.18.02,21.96,0,43.92.03,65.89,0,1.96-.18,3.32-2.36,4.37-44.29,21.36-88.52,42.82-132.76,64.26-.57.28-1.2.43-2.06.74Z"/>
  <path class="cls-2" d="M22.31,212.73c10-9.96,19.76-19.57,29.35-29.35,2.03-2.07,3.47-.91,5.23-.06,38.97,18.89,77.95,37.77,116.92,56.66,5.73,2.78,11.46,5.55,17.48,8.47-.6.78-.98,1.41-1.49,1.92-9.68,9.7-19.4,19.36-29.04,29.1-1.46,1.48-2.54,2.12-4.73,1.02-43.98-22.26-88.01-44.42-132.02-66.61-.46-.23-.87-.58-1.71-1.14Z"/>
  <path class="cls-2" d="M218.76,248.6c12.62-6.12,24.68-11.98,36.74-17.83,32.16-15.58,64.36-31.08,96.43-46.84,3.92-1.93,6.08-1.45,9.02,1.64,8.77,9.22,17.93,18.07,27.17,27.31-1.54.81-2.69,1.44-3.87,2.04-42.94,21.66-85.9,43.29-128.8,65.04-2.69,1.36-4.24,1.26-6.41-.97-9.83-10.1-19.88-19.98-30.28-30.37Z"/>
  <path class="cls-2" d="M301.81,153.43c12.85,6.22,25.23,12.21,38.14,18.46-1.53.84-2.59,1.49-3.7,2.03-42.57,20.62-85.14,41.21-127.69,61.87-2.18,1.06-3.93,1.41-6.29.26-42.89-20.87-85.82-41.64-128.74-62.44-.92-.44-1.78-1-3.07-1.74,12.77-6.18,25.16-12.18,38.1-18.44-.59,6.17,2.74,8.92,7.15,11.34,27.61,15.17,55.17,30.41,82.63,45.84,4.86,2.73,8.87,2.66,13.71-.05,27.46-15.43,55.02-30.68,82.63-45.84,4.44-2.44,7.63-5.27,7.14-11.3Z"/>
  <path class="cls-2" d="M124.71,71.65c1.24.62,2.16,1.05,3.06,1.55,22.2,12.29,44.41,24.56,66.53,36.98,1.31.73,2.74,2.68,2.75,4.07.16,25.14.12,50.28.1,75.42,0,.38-.12.77-.24,1.52-1.16-.53-2.24-.94-3.24-1.49-22.08-12.22-44.18-24.43-66.19-36.78-1.32-.74-2.85-2.62-2.86-3.98-.17-25.14-.12-50.28-.11-75.42,0-.48.1-.96.19-1.86Z"/>
  <path class="cls-2" d="M213.32,191.24c-.07-1.54-.17-2.69-.17-3.84,0-24.07,0-48.15-.02-72.22,0-2.05.03-3.67,2.29-4.92,22.83-12.51,45.59-25.17,68.37-37.77.44-.24.93-.41,1.82-.8.08,1.27.2,2.25.2,3.23.01,24.34,0,48.68.04,73.02,0,2.12-.28,3.57-2.47,4.77-22.6,12.39-45.11,24.93-67.65,37.41-.67.37-1.39.64-2.39,1.11Z"/>
</svg>