<?xml version="1.0" encoding="UTF-8"?>
<svg id="Layer_1" data-name="Layer 1" xmlns="http://www.w3.org/2000/svg" viewBox="0 0 408.8 302.96">
  <defs>
    <style>
      .cls-1 {
        stroke-width: 0px;
      }
    </style>
  </defs>
  <path class="cls-1" d="M408.8,265.62c-1.56,2.89-2.91,5.93-4.72,8.66-4.85,7.31-9.73,14.61-14.97,21.65-1.43,1.92-4,3.65-6.32,4.15-16.27,3.48-32.78,3.35-49.24,2.07-26.76-2.08-52.97-7.29-77.9-17.34-12.88-5.19-25.8-10.91-37.51-18.3C146.95,221.61,76.12,176.18,5.19,130.92c-6.24-3.98-6.69-6.71-2.2-12.56C32.23,80.28,61.48,42.21,90.71,4.12c1.94-2.53,3.94-4.83,7.56-3.92,3.55.89,4.36,3.65,4.92,6.91,4.31,25.23,16.9,45.95,35.44,63.12,8.38,7.76,19.13,10.69,30.24,12.14,22.44,2.94,44.19-.94,65.68-6.6,0-5.56-.34-10.85.08-16.08.61-7.66,4-14.25,9.18-19.9,2.74-2.99,6.15-3.57,8.82-1.53,2.82,2.15,3.19,5.84.48,9.16-8.98,10.99-8.83,22.59-2.43,34.54,5.31,9.93,10.92,19.7,16.38,29.5,8.64-4.09,11.42-4.13,13.47-.5,1.98,3.52.6,6.11-6.09,10.89,2.96,4.14,5.93,8.28,8.94,12.48,4.74-1.92,8.95-7.99,14.09-1.66,2.7,3.33,1.2,5.89-6.35,11.73,2.7,3.36,5.4,6.72,8.23,10.24,4.41-2.08,8.76-6.93,13.28-.85,2.33,3.13.98,5.83-4.97,10.62,5.01,5.31,9.88,10.72,15.01,15.86,16.5,16.56,34.12,31.66,55.44,41.85,15.14,7.24,27.02,17.36,30.72,34.72v8.78ZM14.98,122.66c1.2.84,2.03,1.47,2.91,2.03,67.81,43.26,135.62,86.52,203.46,129.73,5.26,3.35,10.65,6.57,16.21,9.38,31.41,15.88,64.93,23.93,99.89,26.46,13.31.96,26.58.91,39.77-1.43,1.08-.19,2.45-.63,3.04-1.43,2.91-3.9,5.6-7.96,8.52-12.17-.81-.21-1.17-.4-1.52-.37-19.33,1.33-38.54.21-57.65-2.88-33.92-5.49-66.07-15.91-95.32-34.33-28.91-18.21-57.78-36.48-86.66-54.74-1.12-.71-2.25-1.44-3.22-2.33-2.25-2.05-2.72-4.58-1.24-7.22,1.57-2.81,4.16-3.7,7.17-2.69,1.48.49,2.83,1.44,4.18,2.28,29.58,18.65,58.99,37.57,88.8,55.83,10.14,6.21,21.01,11.46,32.03,15.98,26.65,10.96,54.62,16.54,83.35,18.19,12.59.72,25.21.79,37.58-1.58.18-.49.35-.73.34-.97-.01-.66-.05-1.33-.16-1.98-1.36-8.29-6.12-14.47-12.87-18.9-6.2-4.06-12.94-7.29-19.42-10.94-22.39-12.63-41.03-29.8-58.44-48.44-2.98-3.19-5.88-6.44-8.8-9.64-5.81,3.56-11.2,6.98-16.71,10.2-2.97,1.73-6.45.89-8.17-1.6-1.92-2.78-1.32-6.19,1.62-8.45,1.36-1.05,2.91-1.86,4.37-2.78,3.55-2.22,7.1-4.43,10.91-6.81-2.92-3.63-5.49-6.81-8.2-10.17-1.41.87-2.64,1.61-3.85,2.38-4.47,2.88-8.87,5.88-13.43,8.61-2.97,1.78-6.47.88-8.13-1.68-1.74-2.68-1.19-5.95,1.49-8.19,1.11-.93,2.39-1.67,3.62-2.48,4.2-2.76,8.4-5.5,12.88-8.43-3.18-4.47-6.16-8.65-9.25-12.98-1.47.88-2.72,1.6-3.94,2.35-5.66,3.49-11.26,7.06-16.98,10.44-2.96,1.75-6.45.93-8.18-1.57-1.9-2.73-1.34-6.27,1.64-8.43,2.68-1.95,5.59-3.58,8.41-5.34,4.02-2.52,8.05-5.02,11.99-7.48-5.35-9.36-10.64-18.26-15.52-27.38-1.58-2.96-3-3.45-6.17-2.62-21.6,5.64-43.47,9.11-65.89,6.62-15.68-1.74-30.2-6.51-41.68-17.9-14.72-14.62-26.18-31.41-32.63-51.34-.47-1.45-1.01-2.88-1.74-4.95-19.65,25.58-38.81,50.53-58.18,75.76,17.33,11.15,34.27,22.07,51.43,33.11,8.37-16.63,9.94-33.54,4.97-51.03-2.42-8.54-6.69-16.16-12.09-23.19-2.96-3.86-2.5-7.55.85-9.68,3.01-1.92,6.1-1.12,8.9,2.57,16.85,22.18,21.36,46.71,13.61,73.42-1.43,4.92-3.64,9.61-5.62,14.72,9.61,6.17,19.21,12.33,28.81,18.5,2.01,1.29,4.11,2.49,5.95,4,2.61,2.15,3.05,5.01,1.32,7.87-1.79,2.96-4.65,3.33-7.68,2.15-1.34-.52-2.53-1.46-3.76-2.25-29.97-19.28-59.93-38.56-89.9-57.84-1.32-.85-2.68-1.64-4.27-2.62-4.25,5.53-8.36,10.89-12.75,16.61Z"/>
</svg>